<?xml version="1.0" standalone="no"?>
<!DOCTYPE svg PUBLIC "-//W3C//DTD SVG 20010904//EN"
 "http://www.w3.org/TR/2001/REC-SVG-20010904/DTD/svg10.dtd">
<svg version="1.0" xmlns="http://www.w3.org/2000/svg"
 width="11288.000000pt" height="11288.000000pt" viewBox="0 0 11288.000000 11288.000000"
 preserveAspectRatio="xMidYMid meet">

<g transform="translate(0.000000,11288.000000) scale(0.100000,-0.100000)"
fill="#000000" stroke="none">
<path d="M0 56440 l0 -56440 56440 0 56440 0 0 56440 0 56440 -56440 0 -56440
0 0 -56440z m54332 34249 c22 -10 100 -100 125 -143 7 -11 12 -37 13 -56 0
-19 7 -48 16 -65 9 -16 24 -43 33 -60 12 -24 16 -68 18 -220 1 -104 4 -428 8
-720 3 -345 0 -778 -10 -1240 -17 -779 -26 -961 -49 -1017 -9 -21 -21 -72 -27
-115 -7 -43 -20 -95 -30 -115 -11 -21 -19 -43 -19 -50 0 -33 -52 -135 -79
-158 -17 -14 -31 -32 -31 -41 0 -18 -123 -139 -141 -139 -6 0 -24 -14 -41 -30
-16 -17 -44 -38 -62 -47 -17 -9 -56 -35 -86 -58 -54 -40 -92 -64 -215 -131
-104 -58 -137 -78 -225 -141 -48 -34 -154 -96 -214 -125 -59 -28 -102 -55
-157 -97 -15 -11 -39 -25 -55 -31 -15 -6 -57 -30 -93 -54 -36 -24 -76 -47 -88
-50 -12 -4 -50 -26 -84 -49 -34 -23 -89 -57 -123 -75 -33 -18 -90 -55 -125
-82 -35 -27 -87 -57 -115 -66 -28 -9 -62 -27 -76 -39 -14 -13 -49 -35 -79 -50
-29 -14 -88 -50 -130 -79 -42 -29 -93 -61 -113 -72 -155 -81 -201 -107 -258
-146 -36 -24 -105 -66 -155 -93 -49 -27 -108 -61 -130 -77 -43 -30 -115 -70
-210 -117 -33 -16 -84 -48 -112 -70 -29 -21 -68 -43 -85 -47 -18 -3 -44 -15
-58 -26 -87 -67 -105 -78 -126 -78 -13 0 -31 -8 -41 -19 -24 -24 -124 -87
-154 -96 -13 -4 -48 -24 -78 -44 -60 -41 -134 -84 -171 -101 -14 -6 -38 -21
-55 -34 -39 -29 -120 -76 -170 -99 -22 -10 -53 -28 -70 -41 -16 -13 -55 -36
-85 -51 -68 -34 -124 -71 -173 -111 -21 -17 -59 -40 -85 -49 -26 -10 -59 -26
-74 -37 -14 -10 -44 -26 -65 -36 -60 -29 -102 -54 -145 -89 -22 -18 -47 -33
-55 -33 -18 0 -66 -26 -115 -63 -20 -15 -54 -34 -75 -43 -21 -9 -60 -31 -88
-49 -27 -18 -90 -54 -140 -80 -49 -26 -97 -53 -105 -60 -8 -7 -35 -22 -60 -34
-60 -29 -113 -58 -125 -68 -16 -14 -118 -79 -146 -94 -95 -50 -126 -69 -143
-88 -11 -12 -24 -21 -31 -21 -6 0 -44 -22 -85 -49 -41 -26 -91 -54 -111 -60
-20 -6 -70 -35 -110 -63 -69 -47 -144 -91 -279 -161 -30 -15 -75 -41 -100 -57
-25 -16 -58 -37 -75 -46 -16 -9 -69 -41 -116 -70 -47 -30 -94 -54 -104 -54 -9
0 -31 -12 -49 -26 -53 -43 -132 -92 -207 -129 -39 -19 -77 -38 -83 -43 -6 -5
-27 -15 -46 -22 -30 -12 -80 -43 -210 -129 -14 -10 -41 -23 -60 -31 -19 -7
-46 -23 -60 -34 -40 -34 -81 -61 -131 -84 -25 -12 -63 -37 -85 -56 -21 -18
-62 -41 -90 -50 -29 -9 -60 -26 -69 -36 -10 -11 -22 -20 -27 -20 -4 0 -35 -18
-67 -40 -57 -39 -231 -130 -248 -130 -4 0 -46 -27 -93 -61 -47 -34 -114 -75
-150 -92 -36 -18 -76 -41 -88 -53 -12 -12 -54 -34 -92 -49 -38 -15 -77 -36
-87 -47 -21 -24 -107 -72 -155 -88 -21 -6 -38 -16 -38 -21 0 -5 -24 -20 -54
-33 -55 -24 -190 -109 -200 -125 -3 -5 -32 -19 -63 -32 -57 -22 -80 -37 -146
-90 -18 -15 -43 -30 -57 -34 -14 -4 -42 -22 -63 -40 -21 -18 -59 -40 -85 -50
-52 -19 -108 -52 -212 -126 -25 -18 -67 -43 -95 -56 -76 -36 -201 -106 -222
-124 -28 -24 -114 -75 -153 -89 -19 -8 -48 -24 -65 -36 -16 -12 -52 -32 -80
-45 -27 -12 -68 -35 -91 -50 -23 -16 -76 -47 -120 -69 -43 -23 -91 -53 -107
-66 -16 -13 -36 -24 -45 -24 -10 0 -46 -19 -80 -42 -117 -79 -147 -98 -182
-114 -19 -9 -42 -20 -50 -25 -8 -5 -49 -26 -90 -48 -41 -21 -112 -64 -157 -94
-45 -30 -94 -58 -108 -61 -14 -4 -75 -40 -134 -80 -60 -41 -125 -79 -144 -85
-19 -7 -38 -18 -41 -26 -3 -8 -23 -19 -45 -26 -22 -7 -71 -36 -108 -66 -37
-29 -95 -67 -129 -83 -34 -16 -89 -46 -121 -67 -32 -21 -78 -48 -103 -60 -25
-13 -80 -46 -123 -73 -43 -28 -85 -50 -92 -50 -7 0 -27 -11 -43 -25 -16 -14
-58 -37 -94 -52 -35 -16 -74 -36 -88 -46 -14 -9 -49 -35 -79 -57 -30 -21 -68
-42 -84 -46 -16 -3 -48 -19 -71 -34 -22 -15 -61 -38 -86 -51 -25 -13 -72 -42
-105 -64 -33 -23 -76 -47 -95 -55 -19 -8 -46 -21 -60 -30 -14 -10 -36 -24 -50
-34 -14 -9 -50 -32 -80 -52 -30 -20 -73 -45 -95 -56 -84 -40 -165 -85 -207
-117 -57 -42 -148 -96 -187 -109 -18 -6 -45 -20 -60 -32 -16 -11 -33 -20 -39
-20 -5 0 -16 -7 -23 -16 -7 -9 -36 -27 -64 -40 -53 -25 -212 -116 -231 -133
-7 -5 -53 -31 -104 -56 -51 -25 -102 -55 -113 -66 -47 -44 -260 -169 -324
-190 -19 -6 -37 -17 -40 -25 -7 -19 -100 -81 -133 -89 -14 -3 -30 -16 -35 -28
-6 -12 -20 -26 -31 -32 -18 -9 -20 -14 -10 -27 28 -39 53 -40 626 -34 553 6
890 16 1175 36 150 10 379 20 875 40 146 6 292 13 325 15 33 3 203 10 378 16
175 6 326 12 335 13 9 2 89 7 177 11 88 4 176 8 195 10 19 2 161 6 315 10 154
4 339 8 410 10 313 9 10479 5 10488 -4 5 -5 12 -30 15 -56 l5 -47 -109 -104
c-60 -57 -117 -106 -126 -109 -9 -3 -20 -15 -23 -26 -4 -10 -10 -19 -15 -19
-8 0 -82 -57 -105 -80 -5 -6 -14 -15 -20 -21 -5 -5 -35 -28 -65 -50 -64 -48
-154 -125 -225 -192 -27 -27 -90 -80 -140 -117 -281 -214 -786 -702 -1312
-1267 -13 -13 -49 -56 -80 -96 -32 -39 -121 -147 -198 -238 -235 -280 -390
-477 -508 -642 -34 -48 -81 -114 -105 -145 -24 -31 -51 -73 -61 -92 -11 -19
-28 -44 -40 -54 -12 -11 -21 -22 -21 -27 0 -4 -18 -33 -40 -65 -50 -72 -59
-86 -132 -199 -56 -87 -72 -111 -123 -185 -13 -19 -36 -55 -50 -80 -14 -25
-39 -65 -55 -90 -16 -25 -47 -76 -70 -115 -23 -38 -51 -84 -63 -101 -32 -46
-56 -87 -110 -189 -27 -49 -63 -115 -80 -146 -18 -31 -54 -96 -80 -145 -27
-49 -52 -96 -57 -104 -5 -8 -41 -80 -80 -160 -39 -80 -76 -153 -81 -162 -22
-42 -29 -56 -54 -113 -34 -75 -71 -156 -123 -265 -22 -47 -50 -108 -61 -137
-11 -28 -29 -68 -41 -89 -11 -21 -20 -42 -20 -46 0 -8 -41 -101 -90 -203 -16
-33 -31 -74 -35 -92 -3 -18 -14 -42 -24 -55 -10 -13 -23 -45 -30 -72 -7 -27
-20 -65 -30 -85 -10 -20 -26 -56 -34 -81 -17 -48 -57 -158 -130 -360 -25 -69
-53 -147 -63 -175 -9 -27 -25 -72 -36 -100 -11 -27 -30 -84 -43 -125 -13 -41
-30 -93 -39 -115 -8 -22 -15 -53 -16 -68 0 -15 -11 -53 -24 -85 -13 -31 -27
-79 -30 -107 -4 -27 -19 -84 -33 -125 -14 -41 -31 -97 -38 -125 -21 -78 -70
-253 -95 -330 -12 -38 -28 -97 -37 -130 -8 -33 -25 -94 -38 -135 -13 -41 -26
-97 -29 -123 -3 -27 -15 -69 -26 -94 -11 -25 -24 -72 -29 -104 -6 -32 -18 -78
-29 -101 -10 -24 -25 -75 -32 -113 -7 -39 -19 -82 -27 -97 -7 -15 -22 -69 -33
-120 -10 -51 -26 -111 -35 -133 -9 -21 -27 -84 -40 -140 -23 -101 -84 -316
-104 -368 -6 -16 -18 -61 -26 -101 -8 -40 -24 -91 -35 -113 -10 -22 -24 -70
-30 -105 -5 -36 -19 -86 -31 -112 -11 -26 -25 -75 -30 -109 -6 -34 -19 -81
-29 -105 -11 -24 -24 -70 -30 -104 -6 -34 -20 -84 -30 -112 -11 -28 -26 -83
-34 -122 -9 -40 -22 -89 -30 -110 -9 -22 -29 -88 -45 -149 -16 -60 -35 -123
-42 -140 -12 -30 -41 -130 -75 -255 -9 -36 -27 -93 -40 -127 -13 -34 -28 -92
-34 -129 -6 -36 -19 -83 -30 -103 -10 -20 -21 -55 -25 -76 -4 -22 -17 -71 -30
-110 -13 -38 -38 -117 -55 -175 -17 -58 -51 -166 -75 -240 -79 -248 -95 -301
-95 -328 0 -15 -13 -54 -29 -88 -16 -34 -32 -81 -36 -105 -4 -24 -16 -60 -26
-80 -10 -20 -25 -67 -34 -105 -9 -38 -22 -78 -30 -90 -7 -12 -21 -50 -30 -85
-9 -35 -29 -95 -44 -134 -15 -38 -44 -124 -65 -190 -21 -66 -51 -154 -66 -195
-16 -41 -31 -88 -35 -105 -4 -16 -17 -50 -29 -75 -12 -25 -28 -67 -35 -94 -6
-27 -21 -66 -31 -87 -11 -21 -20 -45 -20 -54 0 -9 -16 -49 -35 -89 -19 -40
-35 -82 -35 -92 0 -11 -9 -36 -19 -55 -11 -20 -27 -61 -36 -92 -9 -30 -24 -73
-35 -94 -10 -22 -34 -79 -53 -129 -49 -125 -96 -236 -106 -248 -5 -6 -12 -27
-16 -46 -4 -19 -15 -48 -25 -65 -10 -16 -25 -52 -33 -80 -8 -27 -27 -73 -41
-101 -14 -29 -26 -55 -26 -59 0 -8 -57 -142 -74 -175 -8 -14 -44 -92 -81 -175
-37 -82 -75 -168 -86 -191 -10 -22 -19 -46 -19 -53 0 -8 -13 -37 -29 -65 -16
-28 -31 -63 -35 -78 -3 -15 -17 -44 -31 -64 -14 -20 -25 -43 -25 -51 0 -8 -11
-36 -25 -62 -13 -25 -54 -113 -91 -196 -36 -82 -99 -218 -140 -301 -41 -83
-74 -156 -74 -161 0 -6 -8 -21 -19 -34 -10 -13 -24 -42 -31 -64 -7 -22 -23
-54 -36 -71 -12 -17 -26 -44 -30 -60 -4 -16 -78 -171 -165 -344 -86 -173 -171
-349 -188 -390 -18 -41 -38 -86 -47 -100 -29 -49 -249 -507 -259 -540 -4 -14
-18 -43 -30 -65 -13 -22 -28 -57 -34 -77 -7 -20 -19 -42 -27 -48 -7 -7 -14
-20 -14 -30 0 -9 -13 -44 -29 -76 -16 -32 -43 -90 -61 -129 -18 -38 -45 -97
-61 -130 -37 -77 -68 -172 -69 -207 0 -33 -2 -32 43 -13 22 9 63 48 113 107
43 51 85 99 92 107 7 7 50 64 96 125 45 61 102 138 127 171 24 33 59 82 76
110 18 27 44 64 58 80 47 54 81 99 115 150 19 28 61 86 94 129 34 43 77 101
96 127 19 27 94 126 167 221 72 95 165 218 206 273 41 55 96 123 122 150 26
28 57 68 69 88 11 20 45 76 75 124 30 49 93 152 140 231 47 78 96 159 109 180
78 125 240 390 261 425 9 16 28 45 44 64 15 20 27 41 27 48 0 6 13 29 30 51
16 21 30 44 30 50 0 5 9 20 19 31 11 12 28 36 38 55 10 19 27 49 38 67 77 127
115 193 115 198 0 3 12 22 27 42 28 37 37 51 85 138 14 27 34 55 42 62 9 8 16
21 16 30 0 9 12 34 27 56 15 22 43 72 63 110 20 39 47 88 61 110 13 22 32 54
41 70 53 95 93 163 111 189 11 16 35 66 53 110 18 45 42 88 52 97 11 8 29 36
40 62 11 25 25 52 31 59 6 7 25 40 42 73 17 33 72 139 122 235 49 96 98 186
109 199 10 13 18 29 18 36 0 7 11 29 25 49 14 20 27 47 31 61 3 13 16 35 29
49 13 14 31 48 40 75 9 28 20 51 25 51 5 0 16 21 26 48 10 26 23 54 31 63 7 8
13 19 13 23 0 4 22 54 49 109 59 122 113 240 131 285 7 17 16 32 21 32 4 0 17
31 29 69 11 38 27 74 35 81 8 7 15 25 15 40 0 14 13 46 29 71 16 24 32 61 36
81 4 20 15 44 26 54 10 9 21 33 25 53 3 20 18 63 34 96 79 168 100 223 100
265 0 15 8 38 19 51 30 39 51 86 51 116 0 15 13 47 29 71 16 23 32 62 36 85 4
23 17 58 30 77 12 19 26 53 30 75 3 22 17 58 29 80 13 22 26 61 30 86 4 25 18
61 31 78 13 19 26 55 30 84 4 29 20 83 36 121 16 37 29 73 29 80 0 6 20 56 45
111 25 55 45 107 45 115 0 9 11 38 24 64 13 26 27 68 31 94 3 26 17 63 29 82
13 20 27 56 30 80 8 52 24 99 41 120 7 8 15 39 18 69 4 29 15 69 27 88 11 19
20 48 20 65 0 17 14 60 30 95 17 36 35 88 40 115 6 28 14 56 19 62 13 16 81
205 81 225 0 10 11 40 25 67 14 27 30 75 35 106 6 32 20 77 30 100 11 25 20
65 20 95 0 42 5 57 24 75 19 18 27 40 35 97 6 48 16 81 29 95 13 13 22 43 27
83 4 37 15 73 26 87 10 13 25 54 33 90 7 36 20 76 28 88 20 30 48 144 48 191
0 21 11 60 25 87 14 27 25 63 25 80 0 17 14 63 30 102 17 38 30 78 30 89 0 32
31 113 53 137 14 15 23 43 28 88 5 39 17 76 29 94 12 16 25 58 31 92 5 35 19
76 30 91 12 17 27 63 35 107 7 44 23 96 34 117 11 21 20 44 20 52 0 32 114
337 135 361 7 8 16 35 20 60 8 48 21 79 41 95 6 6 15 32 19 60 4 27 18 70 31
95 13 25 24 55 24 68 0 13 7 38 15 55 8 18 24 58 35 90 12 31 28 64 36 72 8 8
24 40 34 71 11 31 24 62 29 68 5 6 12 22 16 36 3 14 28 70 54 125 89 184 111
237 111 264 0 16 10 37 25 51 14 13 28 38 31 57 3 18 14 43 24 56 9 12 25 45
34 74 9 28 23 53 30 56 7 3 19 26 26 51 7 26 18 50 25 54 11 6 85 153 85 168
0 4 11 21 24 38 13 17 26 45 30 62 4 17 16 41 26 52 11 11 22 33 26 49 4 15
17 39 29 53 12 14 25 37 28 51 4 14 18 38 32 53 14 15 25 33 25 40 0 7 13 31
29 53 16 22 32 50 36 64 4 13 20 45 36 70 16 25 29 48 29 51 0 3 16 30 36 59
20 30 45 73 56 97 11 23 24 42 29 42 5 0 18 19 30 43 12 23 28 46 35 50 8 4
14 14 14 22 0 7 11 26 23 42 13 15 29 43 35 62 7 19 21 40 32 48 11 8 20 23
20 34 0 11 13 34 29 50 17 16 33 39 37 52 3 12 13 29 21 37 17 18 57 75 80
114 10 16 26 36 36 45 9 8 17 21 17 27 0 6 7 17 15 24 8 7 17 28 21 47 5 24
16 41 40 56 18 12 38 32 43 45 6 12 16 28 21 35 6 7 31 45 57 85 25 39 50 72
54 72 9 0 116 147 139 190 13 25 45 64 150 182 30 34 57 67 104 128 19 25 44
55 55 68 12 12 21 27 21 32 0 6 4 10 9 10 10 0 81 73 166 170 63 73 203 226
253 277 17 19 32 38 32 43 0 5 9 12 20 15 11 3 20 10 20 15 0 18 64 104 103
139 112 100 184 172 228 227 27 34 74 81 106 105 32 24 90 74 128 111 74 71
122 114 168 151 15 12 36 30 47 39 42 37 198 178 240 217 25 22 52 44 62 46 9
3 23 17 32 30 9 14 23 25 31 25 8 0 22 11 31 25 9 14 22 25 28 25 6 0 23 12
37 28 41 45 179 165 223 194 23 15 55 38 72 50 17 13 49 36 72 52 23 15 48 39
57 52 8 13 24 24 35 24 11 0 20 4 20 8 0 5 22 21 48 35 26 14 56 35 67 47 10
11 22 20 26 20 4 0 39 23 76 51 37 28 78 55 91 60 12 5 22 13 22 19 0 6 15 17
33 26 18 9 42 29 52 45 11 15 32 31 47 34 15 4 32 13 39 21 6 8 19 14 28 14
10 0 27 13 39 30 12 16 34 33 49 36 27 7 85 42 113 67 8 8 26 20 40 27 14 7
34 21 45 30 11 10 56 37 100 61 44 23 85 47 90 54 6 7 26 18 45 25 19 7 44 21
55 30 11 10 30 21 42 24 12 4 38 20 58 36 21 17 44 30 53 30 8 0 30 14 49 30
18 17 40 30 49 30 8 0 43 18 79 39 35 22 79 44 98 50 18 6 48 22 66 36 18 13
52 27 74 30 23 4 56 15 72 25 17 10 48 23 69 30 22 7 48 21 59 30 10 10 38 23
62 29 24 6 50 20 58 31 8 11 37 27 64 35 28 8 56 22 63 30 7 8 27 17 45 21 18
3 44 17 56 30 13 14 52 33 93 45 39 12 75 25 81 30 5 5 17 9 26 9 9 0 22 6 28
13 6 8 30 20 53 27 24 7 52 21 63 30 11 9 37 22 58 29 21 7 49 23 64 37 15 14
38 24 56 24 16 0 42 11 59 25 16 14 42 25 56 25 15 0 40 7 56 15 38 20 65 19
102 -4 36 -22 40 -39 43 -181 2 -103 -17 -645 -24 -679 -17 -86 -25 -1810 -31
-6661 -19 -16215 -22 -18187 -31 -18226 -18 -78 -64 -152 -128 -205 -99 -82
-103 -85 -305 -234 -220 -162 -247 -182 -345 -266 -38 -32 -127 -106 -196
-163 -69 -56 -135 -112 -146 -122 -31 -29 -72 -63 -137 -116 -32 -26 -91 -78
-131 -115 -39 -38 -101 -95 -136 -128 -193 -179 -359 -336 -493 -467 -83 -80
-170 -162 -194 -182 -62 -51 -629 -624 -879 -888 -116 -122 -231 -243 -255
-268 -23 -25 -90 -97 -148 -159 -58 -63 -132 -142 -165 -176 -86 -89 -168
-178 -324 -355 -36 -40 -77 -85 -91 -100 -14 -14 -42 -45 -64 -70 -21 -25 -81
-90 -132 -146 -52 -56 -104 -114 -116 -130 -25 -32 -68 -79 -161 -177 -280
-292 -615 -646 -737 -781 -123 -135 -1024 -1029 -1210 -1201 -194 -179 -362
-336 -431 -405 -42 -41 -104 -97 -136 -125 -81 -68 -243 -214 -385 -347 -64
-60 -154 -138 -200 -174 -46 -35 -94 -74 -108 -86 -135 -117 -242 -208 -275
-232 -22 -17 -49 -38 -60 -48 -30 -27 -281 -238 -329 -275 -88 -69 -152 -120
-215 -174 -36 -31 -100 -79 -141 -108 -41 -28 -94 -66 -117 -84 -106 -81 -170
-130 -198 -150 -16 -12 -52 -40 -80 -62 -27 -22 -68 -52 -90 -67 -52 -36 -89
-64 -150 -114 -53 -43 -289 -211 -377 -269 -8 -5 -41 -28 -73 -50 -32 -22 -72
-49 -89 -60 -84 -53 -103 -65 -131 -85 -99 -71 -204 -143 -305 -210 -63 -42
-126 -84 -140 -93 -152 -104 -382 -252 -423 -273 -18 -9 -34 -20 -37 -24 -3
-4 -21 -15 -40 -25 -19 -10 -49 -29 -66 -41 -17 -13 -34 -24 -38 -24 -4 0 -26
-13 -49 -28 -23 -15 -51 -33 -62 -39 -50 -30 -124 -75 -310 -188 -192 -118
-219 -134 -330 -190 -27 -14 -57 -29 -65 -35 -8 -5 -31 -17 -50 -25 -19 -9
-62 -31 -95 -49 -33 -19 -139 -77 -235 -129 -96 -53 -188 -104 -205 -114 -16
-9 -46 -23 -65 -30 -19 -8 -43 -22 -55 -32 -11 -10 -35 -23 -53 -29 -18 -6
-45 -20 -60 -30 -15 -11 -38 -23 -52 -27 -14 -4 -32 -13 -40 -20 -8 -7 -52
-31 -97 -53 -45 -23 -90 -46 -100 -51 -10 -5 -117 -58 -238 -117 -121 -60
-233 -118 -248 -131 -16 -13 -38 -23 -50 -23 -12 0 -42 -14 -67 -30 -25 -16
-50 -30 -57 -30 -7 0 -70 -27 -140 -61 -70 -34 -150 -70 -178 -80 -27 -11 -68
-28 -90 -39 -110 -53 -195 -88 -312 -130 -28 -10 -62 -25 -75 -34 -13 -8 -44
-22 -68 -31 -25 -8 -67 -26 -95 -40 -27 -13 -84 -38 -125 -56 -41 -17 -104
-45 -140 -61 -36 -17 -88 -38 -115 -48 -28 -10 -69 -27 -91 -38 -21 -11 -59
-25 -84 -32 -25 -7 -56 -20 -70 -30 -14 -10 -41 -21 -60 -25 -19 -4 -50 -16
-68 -26 -19 -11 -57 -28 -85 -38 -68 -24 -146 -56 -232 -96 -38 -18 -99 -43
-135 -56 -36 -13 -76 -29 -90 -36 -14 -7 -31 -13 -38 -13 -7 0 -36 -12 -64
-26 -28 -14 -75 -32 -104 -40 -29 -7 -70 -22 -90 -33 -21 -11 -62 -25 -93 -32
-30 -6 -64 -17 -76 -24 -11 -8 -49 -21 -85 -30 -36 -9 -70 -21 -77 -27 -7 -5
-43 -18 -80 -29 -87 -24 -179 -54 -273 -89 -42 -16 -112 -40 -155 -55 -44 -14
-89 -30 -100 -35 -29 -14 -191 -68 -260 -86 -33 -9 -76 -25 -95 -34 -20 -10
-62 -23 -95 -29 -32 -6 -69 -18 -81 -26 -13 -8 -51 -21 -84 -29 -33 -8 -80
-24 -104 -35 -24 -12 -65 -28 -92 -36 -47 -13 -79 -24 -274 -95 -47 -17 -115
-39 -151 -49 -36 -10 -77 -26 -91 -35 -14 -9 -54 -21 -89 -27 -35 -6 -76 -19
-90 -29 -29 -20 -91 -40 -127 -40 -13 0 -36 -9 -52 -20 -15 -11 -52 -25 -81
-31 -30 -6 -74 -22 -99 -34 -25 -13 -87 -37 -138 -54 -51 -17 -106 -38 -122
-46 -33 -17 -112 -20 -141 -5 -29 16 -24 70 12 137 17 32 39 67 49 78 9 11 24
34 32 50 30 60 72 130 80 133 4 2 16 22 26 45 10 23 26 48 35 56 10 7 17 19
17 26 0 7 16 32 35 56 19 24 35 49 35 55 0 6 9 19 19 28 11 10 22 28 25 42 4
13 11 24 17 24 5 0 18 20 29 44 10 24 27 50 38 57 10 8 22 26 25 41 4 15 18
39 32 54 14 15 28 38 31 51 4 13 15 28 25 34 11 5 19 19 19 29 0 11 16 37 35
57 19 20 35 41 35 46 0 5 11 22 25 39 13 16 30 48 37 71 7 23 23 53 36 67 13
14 30 39 37 55 7 17 27 43 44 59 17 17 31 37 31 46 0 9 9 25 21 36 12 10 30
38 41 61 11 24 24 43 29 43 5 0 14 12 19 26 6 15 20 40 31 56 25 34 74 120 94
166 9 17 19 32 23 32 4 0 13 15 20 34 7 18 21 41 32 51 11 10 20 24 20 31 0 7
11 25 24 41 13 15 27 39 31 53 4 14 17 36 30 50 12 14 28 42 35 63 6 20 20 42
31 47 10 6 19 21 19 34 0 13 14 40 30 61 17 21 30 45 30 53 0 8 11 29 23 46
13 17 29 46 35 63 6 18 22 48 35 65 14 18 28 43 32 56 3 12 10 22 14 22 4 0
15 19 25 43 11 23 24 49 31 57 7 8 15 28 19 44 4 16 18 45 32 65 13 19 24 43
24 52 0 8 14 28 30 42 17 15 30 35 30 45 0 9 11 34 25 54 14 20 25 44 25 53 0
9 11 26 23 38 13 12 27 35 31 51 4 17 18 40 30 51 13 12 31 44 40 71 9 27 27
66 41 85 13 20 27 48 30 61 4 14 24 46 45 72 21 25 41 60 45 77 4 16 15 35 26
42 10 6 19 19 19 28 0 9 13 36 30 60 16 24 30 52 30 61 0 9 11 30 25 46 14 17
32 49 40 73 9 23 20 48 25 55 6 6 21 31 34 55 64 123 80 149 87 149 5 0 9 6 9
14 0 7 11 29 23 48 13 19 27 47 31 62 4 15 17 38 31 51 13 13 26 38 30 55 4
17 17 43 29 58 12 15 28 46 35 70 7 24 18 45 25 48 8 3 16 22 20 43 3 21 17
47 31 61 14 13 25 34 25 46 0 12 11 35 24 51 35 42 196 348 196 373 0 9 11 31
24 49 14 19 28 46 31 61 3 15 17 38 31 50 13 13 24 34 24 46 0 12 10 35 23 51
13 15 29 44 37 63 7 19 21 44 30 55 10 11 26 45 37 76 11 31 36 80 55 110 20
30 38 65 41 79 4 14 18 38 32 54 14 16 25 35 25 42 0 18 52 117 83 157 13 18
27 46 31 64 4 17 16 39 26 48 11 10 26 39 35 66 9 27 21 52 27 55 5 4 16 21
24 38 8 17 30 58 49 91 32 58 57 104 111 210 14 28 32 57 39 65 7 8 18 32 24
52 7 20 19 42 26 48 8 7 20 30 25 51 6 21 19 47 29 56 11 10 24 36 30 59 6 22
19 48 30 58 10 9 21 33 24 52 3 20 18 46 32 59 14 13 25 34 25 46 0 12 8 29
19 38 10 9 27 32 37 52 68 131 95 192 92 211 -2 16 6 28 29 43 20 13 33 31 37
51 4 17 17 46 31 64 14 19 25 39 25 46 0 6 11 27 24 46 13 20 29 52 36 72 6
20 19 42 29 48 10 7 23 27 29 43 37 100 70 169 117 240 74 113 88 136 106 175
9 19 23 41 32 49 10 7 17 22 17 32 0 11 14 33 30 51 17 17 30 39 30 48 0 10 9
28 19 41 10 14 26 42 35 64 9 22 23 45 30 50 7 6 23 30 34 55 26 53 61 113 72
120 4 3 17 26 28 53 12 26 28 50 36 53 9 3 16 13 16 20 0 26 61 148 91 182 16
18 29 39 29 46 0 7 14 30 30 51 17 21 30 43 30 50 0 7 9 24 20 38 11 14 20 32
20 40 0 8 15 33 33 55 17 21 43 58 57 81 14 23 35 57 46 76 12 18 25 46 28 63
4 16 20 42 36 57 17 16 30 37 30 46 0 10 10 30 23 46 12 15 30 45 40 66 9 20
20 37 25 37 4 0 14 16 21 36 7 20 20 44 30 53 9 10 27 38 39 62 13 24 41 76
61 114 36 67 127 210 170 266 12 15 24 35 27 45 4 11 19 35 33 54 25 33 32 45
75 122 21 38 53 89 159 249 42 64 77 121 77 126 0 5 9 18 20 28 11 10 25 35
32 56 6 21 19 46 30 55 10 10 18 25 18 34 0 9 12 30 26 45 31 34 73 98 96 148
9 20 21 37 27 37 5 0 20 18 32 40 13 22 26 40 30 40 4 0 9 8 13 18 10 31 68
127 81 134 6 4 27 37 45 74 20 42 43 72 61 83 16 9 29 20 29 25 0 6 21 41 48
79 56 82 102 155 136 219 14 26 44 65 66 87 22 22 40 46 40 53 0 8 11 25 25
38 14 13 25 29 25 35 0 7 14 26 30 43 17 18 30 36 30 42 0 5 12 24 28 42 15
18 32 40 37 49 30 48 75 111 117 164 73 92 76 96 117 160 22 33 48 70 59 82
11 11 22 33 26 47 3 14 15 30 26 36 11 6 27 24 35 41 9 16 23 38 31 47 39 46
75 93 113 148 22 34 48 67 56 74 8 7 15 18 15 24 0 7 11 23 25 36 14 13 25 29
25 36 0 7 3 14 8 16 4 2 22 25 40 52 17 27 41 55 52 63 11 8 20 20 20 28 0 8
6 18 13 22 13 8 94 105 112 134 38 60 69 102 107 141 23 26 63 71 87 102 24
31 47 56 51 56 4 0 13 14 20 30 7 17 17 30 22 30 5 0 14 13 21 29 11 25 34 53
147 182 14 15 41 51 60 78 19 28 38 50 43 51 4 0 15 13 25 30 10 16 43 57 73
91 82 93 106 121 131 152 13 16 35 40 49 55 15 15 34 41 42 57 9 17 49 65 89
107 40 43 96 103 123 134 28 32 65 73 83 91 17 19 32 37 32 41 0 4 25 34 55
67 30 33 55 63 55 66 0 3 51 58 113 123 61 64 123 130 137 147 14 17 31 36 38
42 7 7 18 18 25 25 7 8 35 38 62 67 90 95 167 182 183 208 37 55 126 151 230
246 23 22 42 44 42 50 0 6 11 18 25 27 14 9 25 21 25 26 0 5 37 47 83 94 45
46 99 103 119 126 87 101 157 178 227 251 42 42 88 92 103 110 48 56 86 98
252 277 28 30 64 73 80 95 41 55 109 125 123 125 6 0 14 9 18 19 3 11 17 26
30 35 14 9 25 23 25 31 0 9 10 20 23 26 12 6 30 28 40 49 15 33 62 83 133 141
20 16 131 134 314 329 58 62 119 127 135 145 17 17 55 60 85 95 30 35 64 73
75 84 11 11 33 36 48 56 16 19 59 67 95 106 37 39 90 97 117 128 28 32 64 72
80 90 17 18 44 49 60 69 17 20 38 39 48 43 9 3 17 11 17 17 0 7 11 23 25 37
14 14 48 53 74 87 27 34 79 92 115 130 150 155 175 183 181 202 3 11 15 23 25
26 10 3 21 14 24 23 3 9 31 44 62 77 106 112 114 122 114 132 0 5 14 22 30 38
17 16 30 35 30 42 0 7 4 13 9 13 5 0 32 30 59 68 28 37 59 74 69 84 10 9 32
33 48 54 17 20 40 48 53 61 12 13 45 57 72 96 45 66 75 103 152 189 15 17 30
39 33 49 4 11 10 19 14 19 12 0 93 109 112 150 9 20 30 48 48 62 17 15 31 30
31 35 0 4 13 22 29 39 16 16 32 40 35 52 4 12 18 30 32 41 13 10 24 24 24 30
0 6 15 28 33 48 18 21 44 56 58 78 14 22 33 51 42 65 26 39 105 153 122 175
27 35 85 127 85 135 0 4 7 13 16 21 9 7 23 30 31 51 8 21 23 44 33 51 9 6 27
30 39 52 12 22 34 63 51 90 16 28 39 68 50 89 12 21 36 60 54 85 45 64 106
176 106 194 0 8 14 31 30 52 17 21 30 46 30 55 0 10 7 23 15 30 9 7 27 36 42
64 32 65 84 164 126 243 40 73 137 287 137 299 0 5 12 26 26 47 14 21 32 59
40 86 7 26 23 56 34 66 11 10 20 26 20 35 0 9 12 39 26 66 14 27 34 76 44 109
11 33 38 110 60 170 23 61 53 146 67 190 13 44 34 105 45 135 11 30 27 87 35
125 8 39 22 82 29 97 8 15 23 74 34 132 11 57 27 121 35 141 9 19 20 80 25
134 5 54 16 119 25 145 9 26 25 118 35 204 10 87 27 225 38 307 35 253 60 697
61 1080 0 116 -2 220 -5 232 -3 12 -19 26 -36 32 -28 10 -30 9 -45 -27 -8 -20
-22 -44 -30 -53 -8 -10 -20 -40 -28 -69 -7 -28 -20 -61 -28 -74 -9 -12 -22
-45 -30 -73 -8 -28 -22 -65 -31 -82 -9 -17 -25 -57 -35 -89 -20 -59 -113 -275
-129 -295 -5 -7 -14 -32 -21 -57 -7 -25 -21 -58 -31 -75 -10 -16 -21 -44 -25
-62 -3 -18 -14 -42 -24 -55 -10 -13 -24 -41 -30 -63 -13 -41 -21 -59 -109
-245 -27 -58 -66 -143 -87 -190 -21 -47 -46 -96 -55 -110 -10 -14 -21 -36 -25
-50 -4 -14 -18 -41 -31 -60 -13 -19 -24 -42 -24 -51 0 -9 -13 -36 -30 -60 -16
-24 -30 -51 -30 -60 0 -9 -9 -28 -21 -42 -11 -15 -39 -64 -62 -109 -38 -74
-95 -174 -183 -321 -16 -27 -41 -69 -56 -95 -14 -25 -31 -53 -37 -61 -6 -9
-39 -59 -72 -111 -137 -213 -321 -491 -369 -556 -14 -19 -41 -57 -60 -85 -48
-69 -114 -158 -200 -270 -25 -32 -65 -88 -90 -124 -25 -36 -76 -103 -115 -149
-101 -120 -168 -206 -184 -235 -7 -15 -32 -46 -55 -71 -22 -25 -57 -66 -76
-90 -19 -24 -60 -71 -90 -104 -30 -34 -77 -88 -105 -121 -27 -33 -88 -103
-135 -155 -78 -86 -210 -238 -231 -264 -16 -20 -102 -121 -108 -126 -3 -3 -53
-59 -111 -125 -58 -66 -123 -139 -146 -162 -45 -47 -149 -162 -234 -258 -29
-33 -62 -69 -74 -81 -11 -11 -61 -65 -111 -119 -49 -54 -112 -121 -140 -150
-27 -28 -95 -100 -150 -160 -99 -108 -175 -190 -292 -315 -33 -36 -71 -78 -84
-95 -13 -16 -69 -77 -125 -135 -56 -58 -139 -145 -186 -195 -84 -89 -220 -233
-308 -324 -99 -104 -340 -360 -396 -421 -32 -35 -93 -101 -135 -145 -87 -92
-101 -107 -229 -246 -52 -57 -106 -115 -120 -129 -14 -14 -54 -56 -90 -95 -35
-38 -106 -115 -159 -171 -53 -55 -125 -131 -160 -170 -35 -38 -98 -105 -140
-149 -42 -45 -112 -121 -156 -169 -44 -49 -107 -119 -141 -155 -34 -36 -76
-84 -95 -105 -90 -105 -413 -472 -468 -532 -25 -28 -71 -79 -101 -114 -30 -35
-66 -75 -79 -89 -13 -14 -53 -59 -90 -100 -36 -41 -77 -86 -91 -101 -47 -51
-119 -135 -229 -268 -61 -74 -135 -161 -165 -195 -62 -71 -217 -261 -344 -421
-48 -60 -116 -144 -152 -187 -36 -43 -81 -98 -100 -124 -19 -26 -64 -83 -100
-127 -96 -119 -122 -153 -201 -263 -40 -55 -93 -126 -118 -157 -25 -31 -56
-72 -69 -90 -13 -18 -43 -60 -68 -93 -97 -129 -150 -202 -177 -240 -15 -22
-43 -60 -62 -85 -19 -25 -40 -56 -45 -69 -6 -14 -25 -41 -43 -62 -35 -40 -58
-73 -118 -164 -21 -33 -66 -98 -99 -145 -34 -47 -69 -96 -78 -110 -9 -14 -30
-44 -47 -67 -39 -54 -55 -78 -183 -273 -182 -278 -199 -304 -217 -340 -10 -19
-21 -37 -24 -40 -15 -11 -167 -254 -266 -425 -32 -55 -70 -119 -84 -142 -29
-46 -107 -179 -133 -225 -9 -16 -22 -37 -30 -46 -8 -9 -31 -51 -52 -92 -21
-41 -44 -82 -51 -90 -7 -8 -20 -31 -29 -50 -18 -42 -63 -119 -81 -140 -7 -8
-18 -31 -24 -51 -7 -20 -20 -44 -31 -54 -11 -10 -25 -34 -31 -54 -6 -20 -19
-47 -29 -61 -9 -14 -38 -68 -63 -120 -26 -52 -64 -127 -85 -167 -20 -39 -44
-85 -52 -102 -8 -17 -31 -63 -51 -103 -20 -40 -49 -111 -64 -158 -18 -52 -39
-95 -56 -112 -15 -15 -34 -49 -43 -74 -9 -26 -22 -54 -29 -63 -7 -9 -19 -35
-27 -59 -7 -23 -19 -47 -26 -53 -7 -6 -18 -27 -25 -47 -6 -20 -27 -58 -45 -83
-19 -26 -34 -51 -34 -55 0 -5 -4 -15 -9 -22 -11 -18 -89 22 -101 52 -6 16 -14
18195 -8 18657 1 81 -2 101 -19 130 -12 19 -25 52 -29 74 -8 45 -51 128 -102
195 -40 53 -123 139 -659 686 -46 47 -83 89 -83 94 0 6 -6 10 -14 10 -8 0 -22
10 -30 23 -27 38 -325 343 -766 783 -479 478 -546 545 -577 576 -12 13 -26 28
-32 33 -10 9 -77 76 -101 100 -5 6 -28 33 -50 60 -23 28 -52 62 -65 78 -14 15
-25 37 -25 49 0 11 -11 31 -24 43 -14 13 -27 39 -31 66 -4 24 -18 63 -31 85
-34 58 -49 241 -46 554 2 135 3 961 4 1835 l1 1590 -23 115 c-17 89 -33 135
-69 205 -44 86 -59 103 -331 376 -358 359 -615 628 -906 950 -8 9 -14 19 -14
23 0 4 -21 30 -47 58 -57 60 -99 107 -131 145 -13 16 -39 46 -58 68 -19 22
-37 49 -41 60 -3 11 -25 39 -49 63 -24 23 -48 51 -54 62 -6 11 -18 20 -26 20
-8 0 -20 14 -26 30 -6 18 -19 32 -33 36 -22 5 -43 54 -24 54 5 0 9 14 9 30 0
27 -3 30 -30 30 -27 0 -30 3 -30 30 0 25 -4 30 -25 30 -20 0 -25 5 -25 25 0
21 -5 25 -30 25 -27 0 -30 3 -30 30 0 30 -1 30 -55 30 -52 0 -55 1 -55 26 0
14 -4 23 -10 19 -6 -4 -8 -11 -4 -17 3 -5 -7 -3 -22 5 -54 27 -108 27 -166 0
-29 -13 -64 -35 -78 -48 -14 -13 -79 -51 -145 -85 -66 -34 -129 -70 -140 -80
-26 -22 -182 -115 -231 -137 -22 -10 -53 -28 -71 -40 -17 -13 -40 -23 -50 -23
-11 0 -33 -11 -49 -25 -15 -13 -41 -27 -56 -30 -15 -4 -31 -12 -35 -19 -5 -7
-39 -30 -78 -51 -72 -39 -138 -82 -188 -122 -16 -13 -36 -23 -46 -23 -10 0
-49 -22 -89 -49 -39 -27 -86 -54 -105 -60 -18 -6 -43 -20 -54 -30 -11 -10 -53
-36 -94 -57 -41 -21 -87 -48 -104 -60 -16 -12 -64 -38 -105 -59 -97 -47 -150
-80 -161 -96 -7 -12 -160 -98 -245 -137 -22 -11 -61 -35 -87 -55 -26 -20 -89
-57 -140 -83 -51 -25 -103 -56 -117 -69 -14 -12 -54 -35 -90 -51 -36 -15 -72
-33 -80 -40 -9 -7 -50 -31 -93 -54 -75 -39 -196 -116 -207 -132 -3 -4 -24 -14
-46 -22 -22 -7 -74 -35 -114 -60 -41 -25 -80 -46 -86 -46 -7 0 -48 -24 -91
-54 -44 -29 -91 -57 -104 -61 -13 -4 -40 -17 -59 -29 -19 -13 -57 -37 -84 -54
-27 -18 -56 -32 -65 -32 -17 0 -78 -39 -129 -83 -19 -15 -59 -41 -90 -56 -105
-52 -191 -100 -239 -135 -26 -18 -91 -55 -143 -81 -52 -25 -104 -55 -115 -65
-11 -10 -45 -30 -75 -45 -30 -14 -66 -33 -80 -41 -14 -8 -51 -28 -82 -44 -31
-16 -59 -34 -62 -39 -4 -5 -23 -15 -44 -22 -20 -6 -39 -15 -42 -18 -18 -23
-96 -73 -154 -100 -38 -17 -84 -42 -102 -56 -17 -13 -51 -32 -75 -42 -24 -9
-48 -22 -54 -28 -13 -15 -130 -85 -142 -85 -5 0 -42 -21 -83 -47 -41 -25 -93
-54 -115 -62 -22 -9 -74 -38 -115 -65 -129 -85 -144 -94 -182 -106 -21 -6 -38
-15 -38 -19 0 -5 -21 -18 -47 -30 -27 -11 -86 -46 -133 -76 -47 -30 -113 -69
-147 -87 -34 -18 -104 -55 -155 -82 -51 -27 -106 -59 -123 -71 -16 -13 -48
-31 -70 -42 -22 -11 -83 -45 -135 -75 -53 -31 -134 -75 -180 -98 -47 -23 -98
-53 -115 -65 -16 -13 -41 -26 -55 -30 -14 -4 -32 -13 -40 -20 -8 -7 -31 -20
-50 -29 -19 -10 -62 -33 -95 -52 -33 -19 -79 -43 -101 -54 -23 -11 -47 -27
-54 -35 -7 -8 -31 -20 -54 -26 -22 -6 -48 -17 -56 -24 -26 -22 -226 -135 -239
-135 -7 0 -24 -9 -38 -20 -42 -33 -83 -35 -138 -6 -26 14 -57 26 -69 26 -21 1
-100 42 -214 111 -33 20 -70 40 -83 44 -13 4 -54 25 -90 46 -36 21 -68 39 -72
39 -9 0 -178 109 -194 126 -6 6 -29 14 -51 17 -21 4 -47 16 -57 27 -10 11 -23
20 -30 20 -7 0 -31 14 -53 30 -23 17 -48 30 -57 30 -8 0 -29 13 -47 28 -53 45
-113 82 -132 82 -25 0 -76 28 -119 67 -21 18 -65 47 -100 63 -34 17 -75 43
-92 59 -16 15 -51 35 -76 45 -49 17 -129 72 -129 87 0 5 -6 9 -14 9 -7 0 -24
11 -38 25 -14 14 -41 31 -60 39 -19 8 -40 22 -48 30 -7 9 -20 16 -29 16 -16 0
-130 73 -141 90 -8 14 -108 78 -133 85 -12 4 -31 15 -42 25 -11 10 -46 30 -78
44 -38 17 -63 35 -75 55 -11 20 -25 31 -39 31 -11 0 -32 13 -45 29 -14 16 -39
32 -56 35 -16 4 -33 13 -35 20 -3 8 -26 23 -50 35 -25 12 -48 28 -51 36 -3 8
-15 15 -27 15 -31 0 -70 27 -103 71 -17 21 -33 39 -38 39 -4 0 -23 14 -41 30
-19 17 -39 30 -44 30 -6 0 -23 11 -39 25 -16 15 -40 33 -54 41 -31 20 -76 80
-113 152 l-28 54 26 51 c41 83 86 134 133 153 23 9 42 23 42 30 0 7 9 16 21
19 11 4 34 20 50 36 17 16 44 33 61 36 16 3 32 12 35 19 5 13 30 30 119 84 83
50 112 71 117 84 3 8 23 19 44 26 21 7 43 19 50 27 17 22 114 83 143 90 14 3
31 15 38 25 7 10 19 18 27 18 7 0 35 22 63 49 27 27 67 54 88 61 22 7 54 26
72 41 18 16 37 29 42 29 4 0 21 11 37 24 15 13 39 27 53 31 14 4 36 15 50 25
14 10 36 21 49 25 13 4 50 27 81 51 32 24 62 44 67 44 5 0 28 16 50 35 23 19
50 35 61 35 10 0 36 14 57 30 21 17 48 30 61 30 12 0 36 11 52 25 17 14 37 25
46 25 9 0 28 14 43 30 14 17 30 30 36 30 5 0 22 9 38 20 15 12 43 26 61 32 18
6 46 22 61 35 16 12 33 23 39 23 6 0 21 11 34 25 13 14 39 27 62 31 28 4 42
12 45 25 3 10 18 24 34 31 15 7 37 21 47 30 11 10 35 21 54 24 18 4 36 13 39
21 3 7 20 21 37 30 17 9 33 19 36 22 10 13 60 41 73 41 8 0 22 9 31 19 10 11
32 25 49 32 17 7 49 30 70 51 22 21 58 43 81 50 22 6 51 22 64 35 13 12 29 23
37 23 8 0 29 13 47 29 18 15 44 32 58 36 27 8 60 25 101 53 77 52 96 62 114
62 12 0 29 14 42 34 21 33 51 50 273 161 25 12 57 25 72 29 15 3 29 14 32 24
7 22 105 82 134 82 12 0 30 9 39 20 10 11 33 25 52 31 20 7 44 23 54 36 10 12
25 23 33 23 9 0 30 11 47 24 18 13 43 27 56 31 12 4 39 18 58 31 20 13 42 24
49 24 7 0 19 6 26 13 34 31 139 97 155 97 10 0 38 14 62 30 24 17 47 30 51 30
4 0 25 16 46 36 22 20 59 46 84 57 25 11 58 30 73 43 16 13 37 24 46 24 10 0
49 25 87 55 38 30 73 55 77 55 18 0 148 69 178 94 17 14 37 26 45 26 9 0 30
15 48 34 18 19 45 38 62 42 16 3 43 17 61 30 17 13 36 24 41 24 5 0 32 15 58
33 27 18 69 39 93 46 25 7 53 24 64 37 10 13 26 24 36 24 9 0 32 11 51 25 19
14 40 25 47 25 7 0 27 13 45 29 18 15 67 46 108 67 41 21 84 46 95 55 11 10
40 25 65 35 25 9 52 23 61 31 8 7 21 13 28 13 7 0 22 11 33 25 12 16 34 27 59
31 21 4 39 10 39 15 0 5 15 16 33 25 17 9 47 30 65 45 18 16 39 29 48 29 8 0
17 6 20 14 3 8 26 22 52 31 26 10 55 26 64 36 17 17 27 21 80 33 15 3 29 14
32 24 4 10 24 29 47 43 22 13 55 36 74 50 19 14 56 32 82 39 26 7 59 24 74 36
14 13 29 24 33 24 5 0 26 18 48 39 22 23 59 47 86 55 26 9 67 30 92 46 25 16
50 30 57 30 6 0 44 22 85 50 40 27 86 52 103 56 16 3 39 14 50 24 11 10 37 24
59 31 21 8 41 21 44 29 9 26 46 50 78 50 17 0 37 7 44 15 7 8 18 15 26 15 7 0
29 14 47 30 19 17 46 30 59 30 15 0 32 11 46 30 16 21 31 30 52 30 19 0 33 7
40 20 6 10 28 24 49 30 21 5 48 19 61 30 12 11 31 22 41 25 11 4 19 10 19 15
0 4 21 19 48 31 26 13 55 33 65 46 10 13 24 23 32 23 7 0 33 11 56 25 24 14
51 25 59 25 8 0 28 14 43 30 16 17 35 30 42 30 7 0 37 20 67 44 31 27 73 50
101 58 26 6 47 15 47 19 0 4 15 16 33 28 17 11 41 28 52 38 36 33 101 73 117
73 9 0 46 16 82 35 37 19 73 35 81 35 8 0 19 9 25 20 6 11 23 26 39 34 15 8
47 31 70 50 24 20 53 36 65 36 12 0 31 7 42 15 10 8 26 15 34 15 8 0 23 14 32
30 10 17 25 33 35 36 52 17 81 31 122 59 26 18 57 36 71 40 13 4 53 28 88 53
36 24 83 49 106 54 23 5 52 17 66 27 14 10 37 22 50 26 14 4 39 19 57 34 74
61 90 71 125 77 20 4 45 15 54 25 9 10 33 24 53 30 20 7 42 20 49 31 7 10 20
18 28 18 7 0 31 16 53 35 21 19 43 35 48 35 6 0 18 9 28 20 10 11 36 23 58 27
21 3 46 14 56 24 24 26 81 63 121 78 19 8 44 22 55 32 11 10 36 25 55 33 19 8
43 24 52 35 10 12 24 21 32 21 7 0 35 17 62 39 47 37 221 131 242 131 6 0 29
18 52 40 28 27 51 40 69 40 15 0 36 9 45 19 10 11 32 25 49 32 18 7 48 27 67
45 19 18 60 40 90 50 30 9 62 23 70 29 8 7 26 16 39 20 12 4 39 18 58 31 20
13 42 24 49 24 7 0 18 9 24 21 6 11 31 29 56 39 24 11 44 24 44 29 0 6 19 15
42 22 23 6 55 22 71 35 16 13 39 24 52 24 14 0 40 14 58 30 19 17 38 30 42 30
4 0 13 6 19 14 14 18 140 86 160 86 9 0 31 14 49 30 19 17 41 30 49 30 8 0 22
8 32 18 9 11 34 25 57 32 22 8 44 21 49 30 5 10 23 23 39 30 16 6 32 18 35 25
3 8 24 20 47 26 23 7 51 21 63 31 69 58 109 88 116 88 5 0 21 11 36 25 17 16
39 25 59 25 24 0 43 11 79 45 27 25 64 49 85 55 21 5 56 23 78 39 51 37 137
81 158 81 9 0 28 13 43 29 15 16 41 33 57 37 17 4 51 18 76 31 26 13 51 23 57
23 5 0 12 7 16 15 3 8 18 21 33 27 15 7 42 26 58 44 21 22 53 38 105 54 41 12
82 30 90 40 21 22 54 40 77 40 10 0 24 9 31 20 7 12 23 25 35 31 12 5 37 21
56 34 19 14 42 25 51 25 17 0 89 44 145 88 14 11 41 23 60 26 19 4 35 11 35
17 0 5 12 15 28 22 15 6 39 24 54 39 14 16 36 28 49 28 12 0 33 10 45 21 13
12 32 27 42 33 10 6 47 30 83 54 35 23 82 47 103 53 22 6 55 25 73 42 18 18
60 46 93 62 81 41 200 114 230 141 14 12 51 30 83 40 31 10 57 21 57 25 0 11
96 69 132 80 20 6 41 22 53 41 13 21 32 35 55 41 19 5 46 19 60 31 15 12 49
30 76 40 27 9 56 22 64 27 8 5 38 21 67 35 28 13 53 31 56 38 3 8 28 19 55 26
28 6 53 18 56 25 3 8 22 21 43 30 21 9 47 24 58 34 11 11 35 22 53 26 18 4 44
18 57 31 13 13 33 24 43 24 11 0 22 9 25 20 3 13 19 23 50 31 25 6 53 20 63
30 9 10 23 19 30 19 7 0 19 9 26 19 8 11 32 28 53 38 22 10 46 26 53 35 7 10
29 20 49 24 19 4 45 17 56 30 11 13 26 24 33 24 6 0 17 7 24 15 7 9 34 26 59
38 66 33 144 77 161 93 9 7 35 20 58 28 24 9 54 29 68 45 13 16 39 33 56 36
41 9 96 35 135 63 17 12 36 22 42 22 6 0 17 11 23 25 8 18 44 41 124 80 62 30
121 55 130 55 9 0 34 16 55 35 22 19 46 35 54 35 8 0 19 8 24 18 5 10 29 27
53 37 94 40 124 56 147 80 13 14 34 25 46 25 13 0 27 5 30 10 4 6 29 22 56 36
27 13 59 34 69 44 11 11 27 20 36 20 9 0 28 8 42 18 55 39 160 92 179 92 12 0
23 6 26 14 3 7 26 22 51 32 25 11 46 25 46 31 0 7 13 19 28 27 16 8 34 22 42
31 7 8 33 20 57 27 25 6 50 19 56 29 7 11 17 19 23 19 6 0 18 8 28 19 9 10 36
27 59 37 23 10 46 24 50 31 4 7 25 21 45 32 20 10 55 28 77 40 21 11 46 21 55
21 9 0 27 11 40 25 13 14 28 25 34 25 5 0 31 18 58 41 26 22 70 47 96 54 27 8
66 28 87 45 21 16 45 30 53 30 9 0 34 17 57 39 24 22 65 47 102 61 34 12 67
28 73 35 6 8 25 17 41 20 17 4 46 22 64 41 23 23 44 34 63 34 20 0 42 12 69
38 36 33 60 50 127 89 52 30 173 83 189 83 10 0 28 11 40 24 13 14 35 28 49
31 14 4 38 20 54 36 15 16 35 29 44 29 8 0 23 9 32 19 9 11 33 23 53 27 22 4
42 16 52 30 8 13 22 24 30 24 8 0 28 11 45 25 16 14 42 28 56 32 15 3 33 14
39 23 7 10 30 25 51 33 21 8 44 22 51 31 7 8 28 18 46 22 19 3 48 17 66 30 18
13 39 24 46 24 7 0 17 9 23 20 13 24 84 73 129 88 19 7 40 21 47 31 8 10 35
24 61 30 33 8 71 30 123 72 78 63 140 98 175 99 11 0 32 15 47 34 27 33 39 39
141 67 26 7 47 19 47 26 0 7 21 24 48 37 99 50 125 66 139 85 7 11 30 23 50
27 41 8 88 35 143 82 20 17 42 32 47 32 6 0 18 9 28 20 10 11 35 23 56 26 21
4 46 17 58 30 12 14 35 27 51 30 16 4 36 16 44 28 15 24 124 86 149 86 9 0 22
9 30 20 7 10 34 25 60 32 26 7 47 16 47 20 0 4 14 15 31 24 18 9 41 26 53 38
27 29 79 59 139 81 26 10 47 22 47 27 0 5 19 18 43 29 23 11 64 35 92 54 27
19 56 35 64 35 8 0 33 16 57 35 24 20 58 41 76 47 17 6 47 26 64 44 18 17 55
39 83 49 27 9 55 23 62 31 17 21 64 44 88 44 11 0 33 14 49 30 17 17 37 30 44
30 8 0 23 8 34 18 10 10 57 36 104 57 47 22 90 45 95 52 6 7 27 19 47 28 21 8
42 24 48 34 5 11 32 27 60 36 27 9 50 21 50 25 0 5 16 12 35 16 19 3 51 19 71
35 20 16 43 29 50 29 8 0 14 4 14 10 0 5 15 17 33 26 17 9 37 25 44 34 7 9 34
23 60 30 44 12 85 39 138 90 11 10 31 24 45 30 14 5 39 19 55 29 17 11 37 20
46 20 9 1 28 12 43 26 14 13 42 27 61 31 19 3 35 10 35 14 0 21 222 159 258
160 6 0 12 4 12 9 0 19 83 73 132 86 28 8 54 18 57 22 3 4 27 25 53 45 50 41
86 58 123 58 15 0 32 11 45 30 12 16 33 33 48 36 15 4 34 12 42 19 8 7 26 16
39 20 31 10 111 64 134 92 11 14 35 26 58 29 23 4 44 14 49 25 10 17 126 79
149 79 5 0 15 8 20 19 6 10 25 24 43 31 18 7 42 21 53 30 11 10 36 23 56 29
20 7 44 20 54 30 9 11 27 22 41 25 13 4 24 10 24 15 0 24 111 101 145 101 7 0
15 7 19 15 3 9 25 24 48 35 24 10 66 40 93 65 63 58 119 92 168 100 22 4 37
13 37 21 0 18 84 71 135 85 22 6 54 19 71 30 54 33 247 51 296 28z m1965 -95
c29 -16 55 -37 59 -46 3 -10 14 -18 25 -18 33 0 92 -29 129 -64 19 -18 52 -43
73 -55 20 -13 37 -27 37 -32 0 -5 16 -15 35 -23 19 -8 38 -22 41 -29 3 -8 22
-17 43 -21 21 -3 47 -17 61 -31 13 -14 28 -25 33 -25 6 0 26 -12 46 -27 19
-15 49 -35 66 -44 16 -9 44 -23 60 -32 17 -9 38 -17 48 -17 11 0 21 -9 24 -20
3 -11 11 -20 18 -20 7 0 24 -9 38 -20 14 -12 41 -26 59 -32 18 -6 40 -21 49
-31 9 -11 24 -22 34 -23 46 -7 62 -15 75 -39 11 -20 21 -25 50 -25 38 0 97
-38 127 -80 8 -11 34 -28 58 -39 25 -11 45 -24 45 -29 0 -4 24 -16 54 -25 30
-10 59 -24 66 -32 7 -8 20 -15 29 -15 19 0 106 -53 165 -99 21 -17 45 -31 52
-31 24 0 113 -49 123 -68 5 -10 41 -28 80 -40 47 -16 77 -31 87 -47 8 -13 34
-32 57 -43 23 -11 51 -29 61 -41 11 -12 27 -21 37 -21 17 0 89 -36 159 -78 19
-12 44 -26 55 -31 12 -5 27 -16 35 -26 7 -9 27 -23 44 -32 17 -8 40 -23 51
-33 11 -10 39 -23 62 -29 23 -7 48 -19 55 -29 8 -9 34 -28 58 -41 25 -13 68
-39 96 -57 28 -19 59 -34 68 -34 9 0 27 -11 39 -24 13 -13 40 -27 61 -31 21
-4 49 -18 63 -31 14 -13 32 -24 40 -24 8 0 24 -11 36 -24 12 -13 39 -31 60
-39 20 -9 40 -23 43 -32 3 -8 15 -15 27 -15 24 0 139 -54 182 -85 17 -12 46
-27 66 -34 20 -6 56 -27 80 -45 24 -18 58 -37 74 -40 17 -4 47 -20 67 -37 20
-16 63 -43 95 -61 71 -38 166 -103 183 -123 7 -8 18 -15 24 -15 7 0 43 -16 82
-35 38 -19 74 -35 80 -35 6 0 44 -25 85 -55 41 -30 79 -55 85 -55 6 0 21 -9
34 -20 13 -11 40 -25 60 -30 21 -6 43 -17 50 -25 7 -8 31 -23 54 -33 22 -11
47 -26 55 -35 7 -10 20 -17 29 -17 8 0 29 -11 46 -23 17 -13 46 -29 64 -35 19
-6 47 -23 64 -37 16 -14 36 -25 43 -25 8 0 20 -8 27 -19 7 -10 23 -21 35 -25
12 -4 33 -16 47 -27 35 -28 132 -79 149 -79 8 0 31 -13 52 -30 21 -16 45 -30
55 -30 9 0 27 -11 39 -24 12 -13 36 -26 52 -30 16 -3 40 -17 53 -31 13 -14 47
-32 77 -41 78 -23 98 -35 117 -66 9 -16 28 -30 46 -34 17 -3 51 -18 76 -32 65
-38 133 -71 147 -72 7 0 27 -13 45 -29 18 -16 87 -57 153 -91 66 -35 129 -71
140 -81 50 -47 87 -71 121 -81 38 -10 154 -84 154 -98 0 -4 17 -10 38 -14 23
-3 47 -16 60 -31 12 -14 29 -25 37 -25 8 0 22 -11 30 -24 9 -14 30 -27 50 -30
18 -4 68 -29 109 -56 42 -28 80 -50 84 -50 4 0 27 -13 52 -30 24 -16 56 -32
71 -35 15 -3 35 -15 45 -26 9 -10 23 -19 29 -19 7 0 30 -12 51 -26 21 -15 55
-32 75 -39 20 -7 65 -34 99 -59 34 -25 71 -46 82 -46 10 0 30 -11 44 -25 14
-14 39 -32 57 -40 18 -9 48 -24 67 -35 19 -10 45 -19 58 -20 12 0 41 -17 65
-38 23 -21 67 -50 97 -64 31 -14 78 -40 105 -57 27 -17 62 -31 78 -31 19 0 40
-11 62 -32 18 -18 49 -41 68 -52 20 -10 38 -25 41 -32 3 -8 16 -14 28 -14 13
0 39 -10 57 -23 57 -37 123 -75 169 -96 35 -17 111 -70 132 -91 3 -3 44 -25
93 -49 48 -23 87 -47 87 -52 0 -4 13 -15 30 -24 16 -8 37 -24 47 -34 10 -11
35 -22 56 -26 21 -4 50 -17 65 -29 15 -12 62 -39 105 -59 42 -21 77 -43 77
-48 0 -5 20 -18 45 -29 25 -11 48 -26 51 -35 4 -10 19 -15 44 -15 30 0 46 -7
74 -35 20 -19 41 -35 47 -35 5 0 27 -11 47 -25 20 -14 44 -25 53 -25 9 0 33
-13 54 -30 21 -16 43 -30 50 -30 7 0 18 -7 25 -16 8 -8 52 -33 99 -55 153 -72
173 -84 193 -111 10 -16 28 -28 38 -28 11 0 34 -13 52 -29 18 -15 51 -34 73
-41 22 -6 69 -31 105 -55 36 -24 81 -47 100 -51 19 -3 46 -15 60 -26 86 -66
106 -79 129 -85 33 -8 109 -50 141 -79 14 -12 39 -25 56 -29 18 -3 40 -15 50
-26 10 -12 33 -27 51 -34 18 -8 33 -19 33 -24 0 -6 6 -11 13 -11 8 0 32 -13
54 -29 22 -16 49 -32 61 -36 13 -3 29 -17 38 -30 8 -13 29 -26 48 -29 18 -4
42 -17 54 -31 12 -14 32 -25 43 -25 12 0 36 -10 53 -22 17 -13 48 -32 69 -42
20 -11 37 -23 37 -27 0 -5 19 -13 42 -20 23 -6 55 -22 71 -35 16 -13 34 -24
40 -24 6 0 22 -11 36 -24 15 -13 50 -31 79 -40 29 -8 67 -27 83 -41 17 -14 40
-25 52 -25 27 0 86 -35 94 -55 3 -9 22 -25 42 -36 20 -10 43 -23 51 -28 8 -5
54 -28 102 -50 47 -23 93 -47 100 -54 8 -8 34 -24 58 -36 59 -28 131 -70 150
-85 8 -7 36 -20 61 -30 45 -16 72 -34 114 -75 11 -11 38 -24 61 -30 41 -11
167 -89 229 -142 11 -9 35 -20 53 -24 18 -4 38 -16 45 -27 7 -11 27 -26 45
-33 17 -8 32 -19 32 -24 0 -6 18 -15 41 -21 22 -6 49 -20 60 -31 10 -10 23
-19 27 -19 5 0 27 -13 50 -29 22 -17 57 -33 77 -37 21 -4 47 -17 58 -30 11
-13 28 -24 37 -24 9 0 27 -11 40 -24 12 -14 35 -28 50 -31 15 -3 37 -17 50
-30 12 -13 37 -26 55 -29 51 -10 138 -53 165 -81 13 -14 29 -25 36 -25 7 0 28
-13 46 -29 36 -32 99 -61 132 -61 25 -1 49 -17 64 -46 7 -13 26 -24 46 -28 20
-4 49 -18 65 -31 16 -14 32 -25 35 -25 3 0 24 -13 46 -29 22 -16 60 -34 85
-40 29 -7 60 -25 86 -51 23 -22 58 -44 78 -50 38 -10 150 -80 226 -141 11 -9
36 -22 55 -29 19 -7 44 -22 56 -32 11 -10 24 -18 28 -18 4 0 22 -11 39 -23 18
-13 48 -30 67 -38 45 -17 96 -48 126 -76 13 -12 42 -27 63 -33 21 -5 50 -19
64 -30 14 -11 29 -20 34 -20 4 0 26 -16 48 -35 22 -19 45 -35 51 -35 6 0 19
-8 28 -19 9 -10 34 -21 55 -25 21 -3 45 -14 55 -25 10 -10 33 -22 52 -25 19
-4 48 -20 64 -36 17 -17 36 -30 44 -30 7 0 28 -13 46 -30 18 -16 39 -30 45
-30 7 0 24 -9 38 -20 14 -11 32 -20 40 -20 8 0 38 -13 68 -29 30 -15 71 -34
91 -40 34 -11 152 -84 189 -117 8 -8 23 -14 33 -14 17 0 134 -69 171 -100 11
-10 40 -27 65 -39 25 -11 63 -34 85 -51 22 -16 65 -39 95 -50 30 -12 66 -32
80 -45 14 -12 35 -26 48 -30 12 -3 22 -10 22 -16 0 -5 33 -24 73 -43 40 -19
90 -49 111 -66 21 -16 46 -30 56 -30 9 0 52 -25 96 -55 43 -30 84 -55 91 -55
6 0 20 -11 31 -24 10 -13 37 -29 59 -35 22 -6 46 -18 53 -25 6 -8 24 -18 40
-21 16 -3 40 -17 55 -31 14 -13 43 -33 63 -44 39 -22 57 -32 112 -66 19 -13
53 -27 75 -33 22 -6 46 -20 53 -31 7 -11 18 -20 25 -20 7 0 30 -9 51 -19 21
-11 51 -23 67 -26 16 -4 40 -20 53 -36 14 -16 31 -29 39 -29 8 0 30 -11 50
-24 19 -13 45 -27 58 -31 13 -4 45 -23 71 -41 27 -18 74 -45 106 -60 31 -16
60 -34 65 -41 4 -6 51 -33 105 -59 53 -25 106 -54 117 -63 11 -10 39 -23 62
-30 23 -6 61 -29 85 -51 24 -22 48 -40 53 -40 6 0 26 -13 45 -30 19 -16 41
-29 48 -30 22 0 116 -51 147 -79 17 -15 50 -36 75 -46 25 -11 56 -27 70 -36
77 -50 135 -83 218 -123 17 -9 32 -21 32 -26 0 -5 21 -21 48 -35 26 -14 54
-29 62 -34 8 -4 44 -23 80 -41 36 -18 74 -41 85 -50 11 -10 32 -20 47 -24 15
-3 41 -20 58 -36 17 -17 37 -30 45 -30 8 0 19 -9 25 -20 7 -14 21 -20 44 -20
25 0 47 -11 82 -40 27 -22 54 -40 60 -40 6 0 22 -8 35 -19 13 -10 40 -22 59
-26 39 -8 139 -70 147 -91 3 -7 21 -16 41 -20 21 -3 64 -21 97 -39 33 -18 71
-35 85 -38 22 -5 91 -56 157 -115 12 -11 46 -27 75 -36 29 -9 80 -36 113 -61
33 -25 69 -48 80 -51 11 -4 29 -14 40 -24 11 -10 37 -23 58 -30 20 -6 37 -16
37 -21 0 -5 24 -21 53 -34 81 -40 110 -56 144 -84 72 -58 91 -70 129 -80 23
-6 49 -20 59 -31 10 -11 24 -20 30 -20 7 0 24 -9 38 -20 14 -11 45 -27 68 -35
41 -15 143 -77 153 -94 3 -5 22 -12 42 -16 20 -3 47 -18 60 -32 12 -13 54 -37
92 -53 38 -15 81 -40 95 -54 14 -14 32 -26 40 -26 7 0 26 -13 40 -30 15 -16
33 -30 40 -30 7 0 30 -9 52 -20 22 -11 44 -20 50 -20 6 0 21 -9 33 -20 12 -11
26 -20 33 -20 24 0 79 -33 84 -51 4 -10 26 -27 51 -38 24 -11 51 -27 60 -36 8
-8 23 -15 33 -15 10 0 33 -10 52 -23 19 -12 53 -32 76 -45 67 -34 123 -71 123
-81 0 -5 18 -12 40 -16 22 -4 50 -14 62 -24 13 -10 54 -34 93 -55 38 -21 75
-47 83 -57 7 -10 33 -27 57 -38 25 -11 45 -25 45 -30 0 -6 6 -11 13 -11 13 0
88 -38 97 -49 3 -3 22 -15 44 -26 21 -11 56 -29 78 -41 22 -12 44 -28 49 -36
5 -9 21 -19 36 -23 15 -3 40 -17 56 -31 16 -13 35 -24 43 -24 15 0 68 -25 88
-41 37 -30 93 -60 128 -68 22 -5 50 -18 61 -28 12 -10 39 -26 60 -36 20 -9 37
-21 37 -26 0 -5 10 -13 22 -17 13 -4 51 -20 85 -35 33 -16 65 -29 69 -29 11 0
134 -81 134 -89 0 -3 18 -17 40 -31 22 -13 40 -27 40 -31 0 -4 26 -13 58 -20
36 -8 68 -22 87 -40 17 -15 57 -41 91 -58 33 -16 66 -37 74 -45 7 -9 18 -16
24 -16 6 0 26 -13 44 -30 28 -26 85 -50 118 -50 6 0 31 -17 55 -39 24 -21 59
-46 77 -55 17 -9 32 -21 32 -26 0 -5 19 -14 43 -21 38 -10 154 -73 168 -91 3
-5 37 -24 76 -43 40 -19 80 -46 90 -59 10 -12 35 -26 55 -30 32 -6 52 -18 139
-85 15 -11 45 -25 69 -30 23 -5 48 -18 56 -29 8 -11 27 -23 43 -27 16 -3 35
-13 42 -21 6 -8 27 -22 46 -30 18 -9 38 -25 44 -35 5 -11 17 -19 25 -19 22 0
164 -68 164 -79 0 -5 24 -21 53 -35 28 -15 63 -33 77 -41 28 -16 65 -34 126
-64 23 -10 71 -40 107 -65 36 -25 72 -46 79 -46 7 0 35 -15 63 -33 27 -19 71
-46 97 -61 26 -14 50 -35 53 -46 3 -11 10 -20 15 -20 4 0 26 -15 48 -33 22
-19 54 -40 71 -47 17 -7 31 -16 31 -21 0 -5 14 -16 31 -24 40 -21 44 -25 183
-157 65 -62 129 -123 142 -135 26 -24 32 -70 13 -106 -15 -28 -85 -95 -124
-118 -33 -20 -73 -54 -134 -111 -21 -20 -57 -46 -79 -57 -23 -12 -46 -29 -51
-40 -6 -10 -25 -24 -43 -31 -18 -8 -53 -30 -78 -50 -25 -21 -61 -45 -80 -55
-31 -16 -63 -38 -175 -122 -16 -13 -45 -30 -62 -38 -18 -8 -65 -38 -105 -65
-40 -28 -78 -50 -85 -50 -7 0 -21 -8 -31 -18 -25 -25 -108 -82 -120 -82 -8 0
-53 -27 -142 -86 -19 -13 -50 -29 -68 -35 -19 -6 -75 -42 -125 -80 -51 -38
-113 -76 -139 -86 -27 -9 -48 -20 -48 -23 0 -4 -19 -15 -42 -26 -45 -19 -53
-24 -163 -97 -39 -26 -95 -57 -125 -68 -30 -11 -64 -29 -75 -39 -11 -10 -47
-30 -79 -44 -33 -15 -89 -46 -126 -70 -37 -25 -96 -57 -131 -71 -121 -51 -169
-75 -187 -93 -11 -11 -37 -23 -58 -27 -22 -3 -79 -28 -129 -55 -49 -26 -117
-53 -150 -60 -33 -7 -73 -22 -90 -34 -25 -17 -44 -21 -117 -21 -74 0 -91 3
-116 22 -17 13 -49 26 -72 29 -23 4 -56 16 -73 28 -52 35 -157 86 -178 86 -10
0 -33 13 -51 29 -18 16 -47 32 -64 35 -18 4 -40 16 -50 27 -9 10 -22 19 -28
19 -6 0 -69 32 -140 71 -71 39 -148 78 -170 85 -22 8 -52 25 -66 38 -14 13
-43 30 -65 38 -22 9 -85 43 -140 77 -55 33 -116 68 -135 77 -19 9 -46 22 -60
30 -25 14 -91 45 -120 58 -8 3 -44 24 -79 46 -34 22 -66 40 -71 40 -4 0 -18 9
-32 19 -13 11 -64 41 -114 66 -49 26 -100 55 -114 65 -14 9 -41 23 -61 29 -20
6 -45 21 -54 31 -10 11 -23 20 -30 20 -7 0 -19 8 -29 18 -9 11 -34 24 -55 30
-21 7 -46 21 -56 32 -10 11 -22 20 -27 20 -5 0 -26 11 -47 24 -21 14 -56 29
-77 35 -21 6 -61 26 -89 44 -52 34 -119 71 -195 108 -25 12 -65 36 -90 54 -25
17 -67 39 -93 49 -26 10 -60 28 -75 41 -15 12 -49 32 -77 44 -63 28 -182 98
-215 127 -14 12 -42 27 -62 34 -21 6 -40 16 -44 21 -3 6 -40 26 -81 46 -42 20
-89 48 -107 63 -17 15 -93 60 -170 99 -76 40 -145 78 -153 86 -8 8 -21 15 -28
15 -7 0 -27 11 -43 25 -17 14 -46 32 -66 40 -20 9 -36 19 -36 24 0 5 -21 16
-46 25 -25 8 -71 33 -102 54 -32 21 -75 45 -97 52 -22 7 -71 33 -109 57 -38
25 -92 56 -120 68 -28 13 -89 48 -136 79 -47 31 -101 61 -120 67 -19 7 -47 22
-61 34 -15 12 -42 28 -60 35 -31 12 -111 60 -238 142 -25 15 -50 28 -56 28 -6
0 -29 13 -51 29 -21 15 -52 31 -68 35 -34 8 -91 42 -156 92 -43 33 -55 39
-128 70 -18 8 -57 31 -85 52 -29 22 -65 42 -81 46 -16 4 -63 30 -105 58 -42
28 -90 55 -108 60 -18 5 -45 20 -61 33 -37 31 -120 75 -142 75 -10 0 -23 7
-31 16 -7 8 -34 26 -60 39 -26 14 -49 28 -51 33 -1 5 -42 30 -90 56 -49 26
-88 52 -88 57 0 5 -6 9 -14 9 -8 0 -27 11 -43 24 -16 13 -49 29 -73 36 -25 6
-56 22 -70 35 -14 13 -56 38 -95 55 -38 17 -77 36 -85 41 -8 5 -28 17 -44 27
-16 9 -40 26 -55 38 -14 11 -42 26 -61 34 -19 7 -42 19 -50 26 -8 7 -49 28
-90 47 -41 19 -86 46 -99 61 -14 14 -29 26 -34 26 -6 0 -25 11 -42 25 -18 13
-58 35 -89 49 -30 14 -75 38 -98 54 -24 15 -77 45 -118 66 -41 21 -84 46 -95
56 -11 10 -56 37 -100 60 -44 23 -87 48 -96 56 -8 7 -31 19 -50 25 -19 7 -41
17 -49 24 -8 6 -32 21 -53 33 -20 12 -43 26 -50 32 -31 27 -95 64 -131 77 -22
7 -47 20 -56 27 -8 8 -26 17 -40 21 -14 4 -68 35 -120 70 -121 78 -159 101
-189 110 -27 8 -87 46 -117 74 -12 11 -57 37 -100 59 -44 22 -99 50 -124 63
-25 12 -55 31 -68 43 -29 26 -96 65 -192 111 -41 20 -82 43 -91 51 -9 8 -56
35 -105 60 -49 25 -98 55 -110 65 -12 11 -37 24 -56 29 -19 6 -45 18 -56 28
-12 10 -52 33 -89 51 -95 45 -115 58 -256 150 -29 18 -65 38 -82 44 -16 5 -39
18 -50 27 -11 10 -40 26 -65 37 -25 11 -52 26 -60 35 -19 18 -144 92 -239 140
-40 20 -83 46 -95 56 -11 11 -41 29 -66 41 -25 12 -76 39 -115 61 -38 21 -78
39 -87 40 -10 0 -32 13 -50 28 -39 33 -105 72 -209 124 -42 21 -82 45 -89 53
-7 8 -29 19 -49 25 -20 5 -70 32 -111 60 -41 27 -78 50 -81 50 -9 0 -118 66
-138 83 -9 8 -27 18 -40 22 -33 10 -120 62 -151 91 -14 13 -62 41 -106 63 -45
23 -87 48 -94 56 -7 8 -29 19 -49 25 -20 5 -58 25 -86 44 -27 19 -66 42 -85
51 -19 9 -44 24 -55 35 -11 10 -39 23 -62 29 -23 7 -48 17 -55 24 -17 16 -117
81 -148 97 -14 7 -27 16 -30 19 -5 6 -112 59 -160 79 -14 5 -34 17 -45 26 -56
45 -133 90 -194 114 -37 15 -82 40 -100 55 -18 15 -39 27 -48 27 -8 0 -45 17
-81 39 -37 21 -103 57 -147 81 -44 23 -89 50 -101 61 -11 11 -65 42 -119 70
-55 28 -113 62 -130 75 -17 13 -53 33 -81 45 -27 12 -63 33 -80 45 -17 13 -35
24 -40 24 -5 0 -33 15 -62 33 -28 17 -71 43 -94 57 -23 14 -51 35 -63 46 -11
12 -44 29 -72 37 -29 9 -78 33 -111 55 -32 21 -71 42 -86 46 -15 4 -38 17 -50
29 -12 12 -39 30 -59 39 -20 10 -37 22 -37 26 0 5 -17 14 -38 20 -20 6 -53 23
-72 37 -18 14 -39 25 -46 25 -7 0 -25 11 -41 23 -15 13 -53 36 -83 51 -30 15
-73 37 -95 48 -22 11 -78 40 -125 64 -47 24 -90 44 -96 44 -6 0 -17 7 -24 15
-16 19 -116 75 -135 75 -8 0 -29 13 -47 28 -18 16 -55 37 -83 48 -27 10 -90
46 -140 79 -49 34 -133 83 -185 109 -52 26 -123 66 -156 89 -34 23 -74 50 -90
59 -16 10 -36 22 -44 27 -8 5 -46 24 -85 42 -38 19 -81 44 -95 55 -14 12 -36
25 -50 29 -14 4 -34 15 -45 25 -11 10 -36 25 -55 34 -19 9 -48 24 -65 34 -16
9 -65 36 -107 61 -43 24 -83 50 -89 57 -6 8 -16 14 -21 14 -6 0 -22 8 -36 19
-15 10 -45 24 -67 31 -22 7 -49 20 -60 30 -11 10 -36 25 -55 34 -72 34 -116
59 -135 76 -11 10 -32 22 -47 25 -14 4 -34 15 -44 26 -9 10 -35 24 -57 30 -23
6 -66 28 -96 48 -31 21 -78 50 -106 65 -27 14 -77 43 -110 64 -33 21 -76 44
-95 52 -19 7 -44 21 -55 30 -11 9 -36 23 -55 30 -19 7 -42 19 -51 27 -8 7 -20
13 -26 13 -5 0 -20 11 -33 25 -13 14 -29 25 -35 25 -7 0 -30 13 -52 29 -22 16
-50 32 -64 36 -13 4 -53 27 -89 50 -36 23 -86 52 -111 63 -26 11 -49 25 -53
31 -4 6 -26 20 -49 31 -23 11 -71 38 -107 60 -36 22 -80 47 -97 56 -18 9 -33
20 -33 24 0 5 -9 11 -19 15 -11 3 -35 16 -54 29 -19 13 -48 27 -65 31 -16 3
-37 14 -47 25 -9 10 -54 36 -99 58 -45 22 -88 47 -95 56 -8 9 -18 16 -24 16
-5 0 -25 11 -43 25 -19 14 -53 32 -76 41 -24 8 -48 21 -54 29 -6 8 -48 32 -94
54 -45 22 -90 47 -99 54 -21 17 -194 114 -302 168 -31 15 -62 35 -69 44 -7 9
-27 23 -44 32 -17 8 -40 24 -51 34 -11 10 -40 25 -64 34 -24 8 -70 33 -102 54
-32 22 -76 45 -96 51 -46 15 -96 45 -139 82 -17 15 -50 35 -73 43 -41 14 -182
100 -211 129 -8 8 -29 18 -45 22 -17 3 -43 17 -60 29 -25 19 -119 71 -240 133
-16 9 -36 24 -43 34 -7 10 -23 18 -35 18 -25 0 -42 9 -140 69 -37 23 -88 48
-115 57 -26 9 -65 33 -87 53 -41 38 -114 82 -195 116 -25 10 -75 38 -111 62
-37 24 -70 43 -74 43 -4 0 -20 11 -37 25 -16 13 -48 30 -71 36 -23 6 -49 17
-57 23 -17 15 -112 65 -180 96 -25 11 -63 34 -85 50 -22 17 -78 51 -125 76
-153 81 -288 159 -307 176 -18 16 -135 78 -148 78 -4 0 -20 11 -37 25 -16 14
-35 25 -42 25 -7 0 -21 9 -31 20 -10 11 -34 22 -54 26 -20 3 -54 18 -76 33
-68 46 -129 78 -161 85 -18 4 -39 15 -49 26 -9 10 -31 21 -49 24 -18 4 -43 17
-56 31 -13 14 -29 25 -35 25 -6 0 -34 11 -61 25 -27 14 -71 32 -99 41 -57 18
-130 58 -142 77 -4 7 -19 18 -33 25 -14 6 -32 16 -40 21 -8 6 -55 29 -105 52
-49 23 -99 50 -111 60 -11 10 -41 25 -67 33 -26 8 -72 31 -103 53 -30 21 -77
49 -102 63 -43 23 -48 29 -54 70 -3 25 -7 153 -7 285 -1 132 -6 294 -11 360
-11 141 -25 395 -40 735 -6 135 -15 281 -20 325 -12 109 -28 415 -35 675 -9
371 -14 1470 -7 1584 10 149 11 150 187 144 121 -4 133 -6 182 -34z m4543
-13982 c19 -14 39 -32 43 -39 4 -7 17 -13 28 -13 24 0 56 -15 84 -40 11 -10
32 -20 48 -24 15 -4 36 -15 46 -25 11 -11 30 -22 43 -26 12 -4 34 -17 48 -30
14 -12 39 -30 55 -39 71 -40 205 -165 205 -193 0 -6 9 -18 20 -26 21 -15 100
-122 100 -136 0 -5 6 -14 14 -20 20 -17 133 -242 141 -283 4 -18 15 -47 25
-63 10 -17 24 -62 30 -100 7 -39 22 -97 33 -130 19 -53 21 -82 21 -265 0 -186
-2 -210 -22 -260 -12 -30 -26 -79 -32 -108 -5 -29 -21 -76 -35 -106 -14 -29
-25 -57 -25 -62 0 -21 -125 -212 -179 -274 -165 -191 -294 -317 -333 -326 -15
-3 -31 -12 -35 -19 -5 -7 -29 -23 -55 -34 -27 -11 -48 -25 -48 -31 0 -6 -16
-18 -35 -27 -19 -9 -35 -20 -35 -25 0 -4 -17 -16 -37 -27 -21 -10 -47 -28 -57
-40 -11 -12 -23 -21 -29 -21 -5 0 -22 -11 -39 -25 -22 -19 -41 -25 -76 -25
-62 0 -94 18 -109 60 -9 26 -12 370 -12 1399 l-1 1365 22 33 c13 18 32 34 43
37 42 9 111 -6 145 -32z m23276 -3297 c9 -22 20 -117 29 -252 8 -120 17 -229
20 -243 12 -62 25 -420 30 -805 3 -231 10 -532 15 -670 26 -680 31 -841 40
-1360 6 -308 15 -726 20 -930 5 -203 14 -876 20 -1495 9 -1013 23 -1770 34
-1827 4 -21 19 -1168 31 -2373 3 -322 10 -738 15 -925 12 -433 27 -1761 35
-3115 4 -580 11 -1491 16 -2025 5 -533 13 -1838 18 -2900 6 -1061 12 -2101 15
-2310 3 -209 8 -1336 11 -2505 4 -1217 10 -2183 16 -2260 13 -192 14 -2981 1
-3555 -7 -258 -14 -542 -17 -630 -3 -88 -10 -302 -15 -475 -17 -536 -22 -591
-60 -622 -12 -10 -25 -16 -29 -14 -3 2 -48 9 -100 15 -104 13 -143 27 -306
107 -60 29 -128 58 -150 63 -53 12 -143 51 -180 77 -16 12 -46 24 -66 28 -19
3 -51 17 -69 31 -19 14 -39 25 -45 25 -6 0 -26 11 -45 25 -19 14 -44 25 -56
25 -11 0 -37 10 -56 23 -44 30 -135 73 -173 83 -17 3 -43 16 -60 28 -16 12
-44 28 -62 35 -17 7 -39 21 -49 32 -9 10 -23 19 -31 19 -11 0 -66 28 -213 106
-14 8 -30 14 -37 14 -6 0 -37 21 -69 48 -32 26 -74 54 -94 62 -65 28 -169 86
-228 128 -17 13 -47 28 -65 34 -17 6 -41 19 -52 29 -11 9 -42 26 -70 36 -44
17 -146 81 -214 134 -13 11 -31 19 -39 19 -23 0 -155 70 -169 90 -7 10 -32 21
-55 24 -30 5 -63 22 -108 56 -41 31 -75 49 -93 50 -16 0 -38 10 -52 24 -24 24
-89 58 -135 71 -14 4 -38 20 -55 35 -16 15 -48 33 -70 40 -22 7 -56 22 -75 34
-19 13 -47 30 -61 39 -59 35 -58 12 -63 1252 -11 2341 -22 3887 -32 4285 -1
63 -5 333 -8 600 -3 267 -8 636 -11 820 -3 184 -7 819 -10 1410 -3 591 -8
1192 -10 1335 -2 143 -5 1160 -6 2260 -1 1100 -5 2079 -9 2175 -31 711 -35
1573 -35 7085 0 4026 3 5181 13 5405 7 157 15 301 17 320 2 19 7 55 10 80 3
25 6 182 6 350 2 364 7 416 45 472 16 22 35 43 44 46 8 3 31 19 52 36 20 17
58 47 84 66 27 19 55 41 64 48 8 8 44 32 80 55 36 22 85 57 110 78 25 20 61
44 81 52 20 8 65 36 100 61 35 26 75 50 89 53 14 3 56 30 94 60 38 29 75 53
82 53 15 0 121 64 149 90 11 11 36 23 55 26 19 4 40 12 45 19 6 6 24 19 40 27
17 9 39 25 49 37 11 12 23 21 27 21 13 0 51 19 104 50 28 17 70 39 95 51 25
11 52 24 60 29 8 6 35 21 60 34 25 13 70 42 100 65 30 23 60 41 66 41 6 0 41
16 77 35 36 19 71 35 77 35 5 0 41 22 78 49 71 52 144 91 205 110 20 7 37 16
37 21 0 11 140 80 161 80 9 0 32 11 51 23 48 33 211 107 235 107 11 0 28 9 39
21 26 29 78 54 144 69 30 7 87 28 126 46 39 19 75 34 79 34 5 0 18 8 29 19 28
25 72 39 124 40 40 1 44 -1 58 -34z m-57801 -105 c51 -12 138 -52 165 -76 9
-7 35 -20 58 -28 23 -8 66 -33 97 -56 45 -33 116 -60 160 -60 3 0 25 -17 101
-79 6 -5 26 -12 45 -16 19 -4 51 -18 71 -31 21 -13 41 -24 44 -24 4 0 21 -10
38 -23 35 -26 156 -87 174 -87 6 0 19 -11 27 -24 10 -15 29 -26 54 -30 21 -3
55 -20 77 -37 21 -17 49 -35 62 -40 12 -5 22 -13 22 -18 0 -5 15 -14 34 -21
18 -6 41 -19 51 -30 9 -10 34 -21 56 -25 21 -4 55 -20 75 -36 20 -16 42 -29
49 -29 6 0 20 -9 30 -20 10 -11 29 -20 42 -20 13 0 35 -11 49 -25 14 -14 30
-25 36 -25 16 0 88 -42 88 -52 0 -4 15 -8 34 -8 32 0 54 -13 73 -43 5 -7 33
-20 64 -30 30 -9 74 -33 96 -52 23 -19 61 -44 85 -55 23 -11 52 -26 63 -33 11
-7 47 -27 80 -46 33 -19 76 -47 95 -62 19 -15 52 -32 73 -39 20 -6 54 -28 75
-47 20 -20 56 -42 79 -50 23 -8 47 -21 54 -29 6 -8 17 -14 24 -14 7 0 32 -15
54 -34 23 -19 72 -49 109 -66 37 -18 76 -40 87 -50 11 -10 36 -23 56 -29 20
-7 45 -21 54 -31 10 -11 24 -20 32 -20 7 0 21 -8 31 -17 36 -36 128 -93 149
-93 12 0 37 -13 55 -28 18 -16 47 -34 64 -41 17 -7 37 -24 43 -39 10 -20 9
-168 -1 -661 -18 -881 -14 -2417 7 -2891 3 -58 8 -411 11 -785 3 -374 8 -689
10 -700 3 -11 7 -1030 9 -2265 3 -1235 9 -2456 15 -2715 5 -258 12 -762 15
-1120 3 -357 8 -681 10 -720 3 -38 8 -1418 11 -3065 3 -1647 9 -3398 13 -3890
14 -1499 16 -2102 16 -4555 0 -2216 -4 -2871 -24 -3920 l-9 -429 -26 -21 c-14
-11 -50 -40 -79 -63 -28 -24 -68 -52 -89 -63 -20 -10 -38 -22 -40 -26 -4 -11
-126 -89 -163 -104 -16 -8 -45 -25 -64 -39 -19 -14 -53 -36 -76 -50 -69 -41
-103 -63 -173 -109 -36 -24 -84 -52 -107 -63 -22 -10 -53 -26 -70 -35 -110
-62 -153 -89 -175 -108 -14 -13 -56 -39 -95 -59 -38 -20 -97 -54 -130 -76 -33
-22 -71 -44 -85 -50 -67 -30 -216 -110 -266 -144 -21 -14 -44 -26 -50 -26 -6
0 -28 -13 -50 -30 -21 -16 -44 -30 -50 -30 -15 0 -142 -65 -162 -83 -9 -8 -34
-20 -54 -26 -20 -7 -42 -19 -48 -27 -7 -7 -18 -14 -25 -14 -7 0 -32 -16 -55
-35 -23 -19 -54 -38 -69 -42 -30 -7 -129 -58 -151 -78 -8 -8 -34 -18 -57 -23
-24 -5 -56 -22 -73 -36 -18 -14 -36 -26 -41 -26 -6 0 -25 -11 -42 -24 -18 -14
-44 -28 -59 -31 -16 -4 -28 -11 -28 -16 0 -11 -66 -39 -91 -39 -10 0 -23 -9
-29 -20 -6 -10 -29 -25 -53 -31 -23 -7 -53 -22 -67 -34 -14 -12 -56 -37 -94
-55 -38 -18 -78 -42 -88 -52 -10 -10 -25 -18 -34 -18 -16 0 -171 -58 -229 -86
-63 -29 -111 -19 -137 29 -6 13 -12 112 -13 256 -2 130 -5 250 -9 266 -13 71
-32 902 -41 1830 -5 498 -10 756 -20 1205 -8 358 -15 1846 -20 4085 -4 2002
-7 2418 -20 3045 -27 1345 -40 5398 -40 12715 0 6383 6 7593 39 7745 6 25 26
222 26 251 0 9 10 29 21 44 24 29 36 30 134 5z m14350 -6950 c6 -4 41 -10 78
-13 57 -5 74 -11 103 -37 19 -16 41 -30 48 -30 7 0 24 -12 39 -27 14 -16 32
-34 39 -41 7 -7 22 -23 34 -35 12 -12 29 -37 38 -54 9 -18 20 -33 25 -33 5 0
17 -17 26 -37 10 -21 27 -49 37 -63 16 -23 19 -45 19 -190 l0 -164 -47 -95
c-59 -119 -163 -230 -277 -293 -49 -28 -233 -71 -297 -70 -84 1 -253 65 -295
112 -10 11 -23 20 -29 20 -12 0 -136 130 -136 143 0 5 -13 25 -30 44 -16 18
-30 44 -30 57 0 13 -12 47 -26 75 -23 44 -27 64 -27 140 0 74 4 96 23 132 13
24 27 66 31 93 5 27 17 58 28 70 11 12 27 40 36 64 10 23 21 42 26 42 5 0 15
14 24 30 9 17 22 30 30 30 8 0 15 7 15 16 0 8 17 22 38 31 20 8 47 25 59 38
16 15 40 24 79 29 31 3 65 11 75 17 48 25 211 25 244 -1z m587 -4417 c15 -26
16 -298 12 -3263 -3 -1779 -7 -3249 -10 -3266 -2 -17 -10 -39 -18 -49 -13 -18
-16 -17 -60 20 -26 21 -83 79 -128 129 -88 99 -365 392 -386 410 -8 6 -26 23
-40 37 -15 14 -65 59 -111 100 -46 41 -94 83 -106 94 -46 41 -82 71 -110 90
-16 11 -41 32 -56 48 -15 15 -30 27 -34 27 -9 0 -94 68 -113 90 -7 8 -18 26
-25 40 -7 14 -20 34 -30 45 -10 11 -34 40 -53 65 -19 25 -46 59 -60 75 -38 44
-75 105 -89 145 -12 35 -49 105 -66 126 -5 6 -16 53 -24 105 -9 52 -23 107
-32 123 -12 21 -20 88 -31 234 -13 173 -14 239 -4 421 8 143 11 519 10 1116
-2 849 -1 902 16 940 10 22 26 71 36 108 10 38 36 95 59 131 23 34 41 67 41
72 0 5 24 34 52 64 63 66 109 125 125 163 7 15 17 27 23 27 5 0 19 19 31 43
12 23 32 56 45 72 13 17 32 41 41 54 10 13 29 37 43 52 14 16 39 47 55 69 17
22 44 58 60 79 17 22 46 62 65 91 19 28 43 60 52 70 9 11 24 32 32 48 8 16 22
32 31 35 8 4 15 14 15 22 0 20 59 98 94 126 14 11 26 27 26 34 0 8 8 18 17 23
16 10 32 35 73 120 18 36 62 88 111 129 8 6 24 26 37 45 37 55 100 142 114
158 7 8 32 43 55 78 23 35 51 71 62 79 12 8 21 20 21 28 0 7 10 22 23 32 12
10 30 30 40 46 10 15 25 27 35 27 10 0 25 -12 34 -27z m26133 -9273 c22 -10
62 -23 89 -29 27 -7 69 -23 95 -36 25 -14 51 -25 57 -25 6 0 19 -9 29 -20 10
-11 23 -20 29 -20 29 0 162 -116 187 -162 5 -10 16 -18 23 -18 8 0 19 -13 26
-29 6 -16 25 -41 41 -57 16 -15 29 -34 29 -42 0 -7 11 -28 24 -45 13 -18 28
-50 32 -72 4 -22 15 -52 26 -67 38 -54 48 -116 50 -319 4 -258 -4 -338 -41
-414 -16 -33 -34 -74 -39 -90 -5 -17 -20 -46 -33 -66 -13 -20 -33 -52 -44 -70
-33 -54 -38 -61 -92 -129 -52 -67 -118 -127 -207 -192 -28 -20 -64 -47 -80
-59 -77 -61 -233 -149 -263 -149 -7 0 -36 -11 -63 -25 -27 -13 -68 -32 -92
-40 -164 -59 -282 -94 -338 -100 -36 -4 -119 -20 -185 -36 -79 -19 -146 -28
-195 -28 -47 0 -89 -6 -114 -16 -44 -19 -114 -32 -231 -42 -77 -8 -117 -8
-265 -3 -51 2 -76 -1 -95 -14 -14 -9 -54 -19 -89 -23 -58 -5 -64 -4 -80 18
-19 28 -21 98 -3 121 19 25 135 118 147 118 5 0 10 7 10 15 0 9 13 24 29 33
17 9 32 25 35 35 2 10 14 21 25 24 12 3 21 11 21 18 0 6 12 26 28 42 15 17 38
48 52 68 14 21 41 54 60 75 57 62 90 111 101 154 6 23 21 52 34 66 13 14 27
39 31 55 4 17 20 53 36 82 15 28 28 62 28 75 0 27 23 94 49 146 16 32 19 71
24 294 5 249 5 258 30 310 14 29 29 76 33 103 4 28 14 61 24 75 9 14 27 47 39
75 12 27 25 52 29 55 4 3 19 21 33 40 33 44 75 87 123 125 21 17 60 49 87 72
27 23 67 47 89 53 23 6 60 21 84 34 24 13 72 26 106 30 35 4 73 14 85 22 54
35 264 38 340 4z m-26681 -567 c33 -8 74 -23 90 -32 121 -67 196 -118 196
-131 0 -6 6 -10 13 -10 16 0 56 -54 90 -120 12 -25 30 -56 39 -70 21 -33 30
-207 16 -320 -13 -115 -58 -201 -153 -292 -38 -38 -74 -68 -81 -68 -6 0 -23
-11 -38 -25 -15 -14 -39 -27 -54 -31 -15 -3 -52 -14 -82 -26 -147 -54 -168
-60 -235 -61 -75 -1 -109 11 -158 57 -15 14 -33 26 -39 26 -6 0 -29 16 -52 35
-22 19 -52 44 -66 54 -68 53 -103 89 -116 121 -8 19 -24 44 -34 55 -11 12 -24
45 -30 75 -6 30 -18 65 -27 79 -26 39 -24 162 3 226 12 28 25 72 28 98 5 31
14 52 27 60 10 6 19 16 19 22 0 34 92 155 118 155 4 0 22 14 41 30 18 17 42
30 52 30 10 0 20 4 24 9 15 25 108 57 195 68 25 3 47 7 50 10 7 7 92 -5 164
-24z m17801 -1538 c18 -9 38 -28 44 -42 16 -36 14 -603 -4 -1073 -20 -503 -20
-789 -1 -796 8 -3 3610 -6 8004 -7 7842 -2 7990 -2 8011 -21 20 -18 21 -28 21
-235 0 -119 -6 -295 -12 -391 -9 -129 -12 -930 -13 -3070 l0 -2895 -27 -64
c-48 -111 -117 -177 -258 -246 -30 -15 -66 -33 -80 -41 -14 -8 -50 -26 -80
-40 -30 -14 -61 -31 -70 -38 -8 -7 -31 -19 -50 -26 -19 -7 -46 -21 -60 -30
-14 -10 -36 -21 -50 -25 -14 -4 -31 -13 -39 -19 -20 -17 -142 -82 -409 -218
-133 -67 -270 -138 -305 -156 -77 -42 -181 -95 -227 -116 -19 -9 -46 -23 -60
-31 -49 -29 -276 -151 -315 -169 -22 -11 -54 -30 -71 -42 -17 -13 -45 -27 -62
-30 -18 -4 -32 -10 -32 -14 0 -4 -17 -16 -37 -25 -33 -15 -381 -204 -438 -238
-11 -6 -47 -26 -80 -43 -33 -17 -85 -46 -115 -63 -30 -17 -75 -41 -100 -54
-25 -13 -83 -46 -130 -72 -47 -26 -110 -61 -140 -77 -162 -86 -196 -112 -334
-252 -71 -73 -136 -153 -192 -236 -46 -69 -99 -147 -118 -175 -34 -52 -169
-258 -200 -308 -9 -16 -24 -36 -33 -45 -8 -9 -71 -102 -139 -205 -69 -104
-129 -194 -135 -200 -6 -7 -18 -24 -27 -38 -9 -15 -35 -53 -57 -84 -22 -32
-44 -66 -50 -75 -5 -9 -55 -82 -110 -163 -55 -82 -118 -176 -140 -211 -22 -34
-51 -76 -65 -93 -14 -17 -33 -43 -42 -59 -33 -55 -113 -180 -131 -204 -19 -28
-75 -110 -141 -210 -91 -139 -118 -179 -203 -303 -48 -71 -103 -154 -121 -185
-18 -32 -41 -66 -51 -77 -10 -11 -44 -60 -77 -109 -32 -49 -70 -105 -84 -126
-14 -20 -33 -45 -42 -54 -10 -10 -18 -24 -18 -31 0 -8 -13 -30 -30 -48 -16
-19 -30 -38 -30 -43 0 -10 -103 -143 -132 -170 -13 -11 -51 -40 -86 -63 -34
-24 -67 -51 -72 -62 -6 -10 -27 -23 -48 -28 -22 -5 -781 -12 -1882 -16 -1015
-3 -1973 -10 -2130 -15 -157 -5 -415 -11 -575 -12 -389 -3 -383 -6 -380 225 3
210 23 370 51 414 8 13 17 72 22 150 6 89 15 139 27 163 10 18 26 72 36 119
10 47 30 122 44 166 14 44 25 94 25 111 0 16 20 70 45 118 25 49 45 99 45 111
0 12 11 32 25 45 14 13 25 32 25 43 0 20 122 271 180 372 16 28 32 57 36 65 4
8 20 34 36 57 15 23 28 46 28 51 0 5 7 15 15 22 17 14 117 159 151 219 12 21
32 49 45 63 13 14 35 42 49 62 32 47 112 149 162 206 21 25 51 59 66 77 15 18
34 40 43 50 9 10 48 58 88 107 78 97 254 290 315 346 21 19 89 83 150 141 61
59 147 136 191 173 44 37 91 76 105 89 14 12 71 60 126 107 88 73 130 107 267
212 12 9 38 30 57 46 19 16 53 41 75 55 60 40 84 57 150 107 33 26 105 75 160
110 55 35 111 73 125 83 50 38 225 147 236 147 6 0 21 12 35 26 13 15 42 34
64 44 22 9 70 36 108 59 37 22 70 41 73 41 3 0 19 11 36 25 16 14 35 25 43 25
7 0 18 7 25 15 7 9 50 36 95 60 45 25 92 54 105 65 13 11 27 20 32 20 5 0 40
19 78 43 142 86 197 118 270 157 41 22 125 67 185 100 61 33 133 71 162 85 28
14 56 32 63 40 6 8 28 19 48 26 20 6 42 16 49 21 7 5 27 18 45 27 206 110 347
187 376 207 19 13 40 24 47 24 7 0 24 9 38 20 14 11 59 37 100 58 41 21 87 48
102 60 15 12 34 22 43 22 8 0 40 15 71 34 31 18 81 46 111 62 30 15 62 33 70
40 14 11 124 71 255 139 91 47 93 48 205 109 25 13 65 35 90 48 25 13 77 42
115 63 86 49 172 96 277 152 20 11 51 32 68 47 17 14 36 26 41 26 12 0 215
202 254 254 83 107 110 139 214 260 47 53 92 108 100 121 18 26 52 68 186 226
50 58 104 123 120 144 17 21 35 43 40 49 47 51 59 118 26 136 -32 16 -65 12
-101 -15 -18 -13 -49 -30 -69 -36 -20 -6 -40 -15 -46 -19 -32 -23 -495 -250
-511 -250 -5 0 -31 -13 -57 -30 -26 -16 -53 -30 -60 -30 -7 0 -30 -10 -52 -21
-22 -12 -57 -28 -78 -35 -21 -7 -51 -22 -66 -33 -15 -11 -40 -23 -57 -27 -16
-3 -38 -12 -49 -19 -11 -7 -54 -27 -95 -45 -76 -33 -448 -212 -485 -232 -52
-30 -172 -84 -205 -93 -14 -4 -31 -12 -37 -17 -11 -9 -240 -123 -514 -257 -58
-28 -112 -51 -120 -51 -8 0 -27 -11 -43 -25 -16 -14 -33 -25 -38 -25 -7 0
-684 -330 -743 -363 -11 -6 -33 -17 -50 -24 -16 -8 -37 -18 -45 -23 -8 -5 -71
-39 -140 -76 -69 -36 -161 -87 -205 -112 -165 -94 -181 -103 -225 -123 -25
-12 -54 -29 -65 -38 -11 -10 -58 -35 -105 -56 -47 -21 -87 -42 -90 -46 -3 -5
-28 -18 -55 -30 -28 -12 -64 -33 -81 -45 -17 -13 -34 -24 -38 -24 -4 0 -41
-20 -82 -45 -42 -26 -85 -50 -97 -55 -12 -6 -51 -28 -87 -50 -36 -22 -78 -46
-95 -54 -16 -8 -43 -26 -59 -40 -16 -15 -34 -26 -40 -26 -7 0 -23 -9 -36 -20
-29 -22 -249 -166 -345 -225 -36 -22 -91 -59 -123 -81 -32 -23 -73 -49 -91
-58 -18 -10 -40 -25 -50 -34 -10 -9 -31 -25 -47 -34 -79 -47 -211 -132 -229
-147 -11 -10 -58 -44 -105 -76 -47 -33 -87 -62 -90 -66 -5 -6 -73 -52 -124
-83 -17 -10 -33 -21 -36 -25 -3 -4 -19 -17 -37 -29 -18 -13 -42 -31 -55 -42
-34 -29 -99 -80 -159 -125 -29 -22 -71 -56 -93 -76 -23 -19 -61 -50 -86 -69
-25 -19 -105 -86 -179 -150 -73 -63 -148 -126 -165 -140 -35 -27 -109 -94
-166 -149 -19 -19 -66 -62 -105 -95 -118 -102 -473 -466 -547 -561 -28 -37
-85 -101 -118 -135 -44 -43 -143 -163 -185 -223 -22 -32 -60 -84 -85 -115 -25
-32 -67 -89 -95 -126 -27 -37 -62 -82 -76 -99 -15 -18 -36 -50 -48 -72 -12
-22 -35 -60 -51 -85 -16 -25 -39 -61 -50 -80 -11 -19 -47 -80 -80 -135 -73
-121 -130 -231 -130 -250 0 -7 -11 -26 -23 -42 -26 -31 -90 -161 -101 -207 -4
-17 -16 -42 -26 -56 -18 -25 -54 -112 -85 -205 -7 -22 -27 -75 -44 -117 -17
-43 -36 -101 -41 -130 -6 -29 -24 -88 -40 -130 -17 -43 -30 -89 -30 -104 0
-14 -13 -59 -30 -101 -16 -41 -30 -87 -30 -101 -1 -15 -10 -52 -21 -82 -11
-30 -29 -95 -40 -144 -20 -89 -50 -160 -87 -206 l-20 -25 -10308 -1 c-6465 -1
-10309 -5 -10311 -11 -8 -22 69 -83 177 -143 63 -35 128 -74 143 -87 16 -12
34 -23 41 -23 18 0 124 -57 149 -81 11 -10 36 -24 56 -30 20 -7 48 -22 63 -35
16 -12 38 -26 50 -30 13 -4 37 -17 53 -29 45 -34 177 -102 212 -109 17 -4 39
-16 49 -27 10 -11 40 -32 66 -46 26 -14 48 -30 48 -34 0 -4 29 -17 65 -29 35
-12 90 -39 122 -61 32 -21 65 -39 73 -39 8 0 31 -10 50 -22 48 -30 73 -45 155
-87 93 -49 145 -81 145 -90 0 -4 25 -15 56 -25 30 -10 57 -23 60 -31 3 -7 16
-16 29 -19 13 -3 36 -17 52 -30 15 -13 63 -42 106 -64 78 -42 98 -54 164 -104
20 -16 46 -28 58 -28 20 0 39 -12 126 -79 15 -11 46 -25 70 -30 25 -6 50 -19
58 -30 7 -12 20 -21 28 -21 20 0 111 -48 134 -71 11 -11 40 -29 65 -39 24 -11
47 -26 50 -35 4 -9 19 -15 41 -15 25 0 42 -8 61 -28 15 -15 42 -34 60 -41 18
-8 37 -22 42 -31 6 -10 40 -27 80 -39 48 -15 79 -31 97 -51 15 -17 44 -36 65
-42 22 -6 45 -19 51 -28 7 -10 26 -20 44 -24 18 -4 42 -15 55 -25 13 -10 55
-34 94 -54 38 -19 77 -43 85 -53 8 -9 41 -30 74 -45 56 -26 89 -46 161 -93 82
-55 119 -76 130 -76 7 0 19 -8 26 -18 7 -10 26 -22 41 -26 16 -4 38 -17 50
-30 12 -13 36 -26 52 -30 30 -7 129 -68 140 -86 3 -4 22 -14 43 -21 40 -13
102 -48 159 -91 20 -16 42 -28 49 -28 7 0 15 -9 19 -19 4 -12 19 -21 43 -26
20 -4 57 -20 81 -36 25 -16 51 -29 59 -29 18 0 96 -47 128 -77 13 -12 34 -25
46 -29 13 -3 34 -14 48 -24 37 -25 136 -70 191 -86 27 -8 54 -23 61 -33 7 -10
24 -24 38 -31 14 -7 41 -25 61 -41 19 -15 47 -31 61 -34 14 -4 47 -24 73 -46
26 -21 52 -39 59 -39 16 0 127 -59 151 -80 11 -10 32 -21 47 -25 14 -4 36 -16
47 -26 12 -11 36 -26 55 -34 18 -8 38 -21 45 -29 8 -9 30 -20 51 -26 34 -9
156 -90 207 -137 11 -11 38 -24 58 -27 34 -7 114 -52 155 -88 9 -8 30 -20 47
-27 17 -7 39 -21 48 -31 10 -11 30 -22 46 -25 16 -4 35 -15 42 -25 7 -10 32
-23 55 -30 24 -6 51 -18 60 -26 75 -65 212 -144 249 -144 10 0 29 -9 43 -20
14 -11 29 -20 34 -20 5 0 23 -11 40 -23 17 -13 48 -32 69 -42 22 -10 41 -24
44 -32 3 -7 11 -13 18 -13 7 0 24 -10 39 -21 15 -12 48 -28 74 -35 25 -8 55
-23 66 -33 12 -11 42 -29 69 -41 26 -12 50 -26 53 -31 3 -5 14 -9 24 -9 10 0
29 -12 42 -28 12 -15 66 -47 118 -71 52 -24 100 -50 105 -57 6 -8 29 -20 53
-29 45 -15 87 -42 126 -79 30 -28 81 -57 139 -78 27 -9 63 -30 81 -45 18 -15
44 -35 57 -43 13 -8 35 -27 49 -41 16 -16 42 -29 69 -34 23 -4 57 -19 74 -34
18 -15 44 -32 60 -39 15 -6 27 -16 27 -22 0 -5 6 -10 13 -10 8 0 36 -16 63
-35 27 -19 54 -35 60 -35 6 0 19 -9 28 -19 10 -10 37 -24 61 -30 24 -6 48 -17
52 -25 4 -7 25 -19 46 -25 20 -7 41 -21 47 -30 5 -11 26 -21 49 -25 28 -4 46
-14 57 -31 9 -14 22 -25 29 -25 7 0 24 -9 38 -20 14 -11 36 -20 49 -20 26 0
88 -35 88 -50 0 -10 117 -70 137 -70 6 0 26 -13 44 -30 19 -16 46 -32 60 -35
15 -3 35 -14 45 -23 39 -36 111 -78 154 -91 44 -13 85 -38 137 -87 14 -13 34
-24 43 -24 10 0 34 -13 55 -30 21 -16 45 -30 53 -30 16 0 85 -43 187 -117 32
-24 67 -43 77 -43 11 0 29 -11 41 -24 12 -12 40 -29 62 -36 22 -7 61 -30 87
-51 26 -22 67 -48 92 -59 25 -10 46 -24 46 -29 0 -6 18 -15 40 -21 22 -6 48
-19 57 -29 10 -10 34 -24 54 -30 20 -6 45 -21 54 -31 10 -11 25 -20 34 -20 9
0 32 -11 51 -23 19 -13 46 -27 60 -30 31 -8 131 -72 142 -91 4 -7 20 -17 35
-21 15 -3 40 -17 56 -31 16 -13 35 -24 42 -24 24 0 109 -49 135 -78 16 -18 47
-35 88 -47 34 -10 62 -22 62 -27 0 -13 63 -48 87 -48 21 0 113 -67 160 -117
12 -13 31 -23 42 -23 11 0 32 -10 48 -23 15 -12 55 -36 88 -52 33 -15 71 -38
85 -50 14 -13 41 -28 61 -34 20 -6 47 -23 59 -36 13 -14 29 -25 36 -25 19 0
84 -32 84 -42 0 -4 7 -8 15 -8 8 0 22 -11 31 -25 9 -14 22 -25 28 -25 6 0 26
-13 43 -29 18 -16 46 -32 62 -36 17 -3 46 -17 66 -31 20 -13 39 -24 44 -24 4
0 18 -11 30 -24 13 -13 38 -27 56 -30 19 -4 44 -15 57 -26 13 -10 39 -32 58
-48 19 -16 52 -32 73 -36 20 -4 45 -15 55 -25 9 -10 33 -26 52 -36 19 -10 40
-24 45 -30 6 -7 22 -15 37 -19 14 -3 39 -17 55 -29 15 -13 42 -27 58 -31 17
-4 37 -14 45 -21 8 -7 44 -29 80 -48 36 -19 83 -46 104 -61 21 -14 43 -26 48
-26 13 0 66 -39 113 -82 22 -21 47 -38 56 -38 30 0 67 -40 98 -103 17 -35 31
-69 31 -77 0 -7 9 -27 19 -44 11 -17 26 -74 35 -126 8 -52 22 -126 31 -165 9
-39 20 -161 25 -275 5 -113 14 -223 20 -245 21 -86 31 -431 31 -1120 0 -680
-7 -904 -31 -1020 -5 -27 -17 -124 -25 -215 -15 -153 -39 -281 -68 -355 -35
-91 -108 -151 -154 -126 -10 5 -41 14 -68 19 -58 12 -168 56 -205 83 -14 10
-45 25 -70 33 -88 28 -153 56 -174 74 -12 10 -37 25 -56 32 -19 7 -42 19 -50
26 -9 8 -35 20 -57 28 -51 18 -131 61 -158 86 -11 10 -31 21 -45 25 -14 4 -54
24 -89 44 -35 20 -102 56 -148 81 -46 25 -93 54 -106 65 -12 11 -55 34 -95 51
-39 18 -93 45 -120 62 -26 17 -81 48 -122 70 -157 83 -247 137 -306 183 -35
27 -78 51 -99 55 -20 3 -58 21 -84 39 -26 18 -67 43 -91 55 -25 13 -56 31 -70
42 -47 36 -100 68 -150 89 -28 12 -50 25 -50 30 0 4 -10 11 -22 15 -13 4 -39
17 -58 29 -19 12 -46 26 -60 30 -14 4 -41 19 -60 34 -19 14 -44 31 -55 37 -11
6 -42 24 -70 39 -27 15 -84 45 -125 67 -41 21 -84 50 -95 63 -11 13 -37 26
-57 29 -21 4 -51 18 -67 32 -17 14 -65 43 -108 65 -43 22 -98 52 -123 69 -58
37 -226 130 -237 130 -4 0 -30 16 -58 35 -125 88 -165 114 -197 124 -18 7 -58
27 -88 46 -30 19 -73 44 -95 54 -22 11 -55 31 -74 45 -19 15 -40 26 -47 26 -6
0 -28 14 -49 30 -21 17 -45 30 -54 30 -9 0 -39 16 -66 36 -28 20 -77 49 -110
64 -33 15 -80 43 -105 61 -25 19 -61 41 -80 49 -48 19 -119 59 -153 87 -16 13
-34 23 -42 23 -7 0 -18 6 -24 14 -6 7 -33 21 -59 31 -26 10 -60 27 -77 39 -16
11 -64 37 -105 57 -42 20 -82 44 -90 54 -7 9 -29 23 -48 30 -18 8 -47 26 -64
40 -16 14 -35 25 -42 25 -7 0 -27 11 -45 24 -19 14 -48 28 -65 32 -17 4 -51
21 -75 38 -119 84 -153 105 -188 116 -21 7 -72 34 -114 61 -41 27 -79 49 -83
49 -9 0 -95 50 -225 131 -34 21 -66 39 -70 39 -5 0 -16 9 -26 20 -9 10 -34 24
-54 31 -30 9 -123 65 -231 139 -14 9 -38 20 -54 24 -28 7 -51 22 -120 78 -18
15 -55 32 -82 38 -27 6 -58 20 -69 31 -31 30 -88 65 -120 73 -16 4 -49 21 -74
38 -81 55 -94 63 -226 128 -71 35 -147 78 -167 95 -21 17 -75 51 -120 74 -46
24 -96 53 -113 65 -31 22 -121 72 -190 106 -22 10 -46 28 -53 39 -7 12 -19 21
-28 21 -17 0 -138 62 -164 84 -8 7 -31 19 -50 26 -32 12 -80 40 -185 110 -22
14 -85 48 -140 75 -55 26 -114 59 -131 72 -17 12 -35 23 -39 23 -5 0 -20 11
-34 24 -15 14 -60 42 -101 64 -110 57 -140 74 -174 102 -29 24 -58 38 -143 70
-18 7 -33 16 -33 20 0 4 -21 15 -47 25 -27 10 -66 32 -87 49 -47 36 -70 50
-201 117 -55 28 -125 64 -155 80 -30 16 -73 42 -95 58 -22 17 -71 47 -110 67
-38 20 -84 47 -101 60 -17 13 -49 30 -71 38 -22 8 -62 31 -88 51 -26 20 -62
43 -79 52 -17 8 -40 23 -51 33 -11 10 -37 23 -58 30 -21 6 -50 23 -64 36 -14
13 -33 24 -42 24 -9 0 -43 18 -76 40 -33 22 -78 52 -100 67 -22 14 -66 37 -98
50 -62 25 -131 65 -142 82 -3 6 -25 20 -48 31 -43 22 -75 39 -138 76 -20 12
-53 27 -75 34 -21 7 -48 21 -59 31 -30 29 -81 60 -177 108 -48 24 -92 49 -98
57 -7 7 -28 18 -48 25 -45 14 -108 49 -142 79 -14 12 -59 38 -100 57 -41 19
-84 43 -95 53 -11 10 -40 26 -65 36 -42 17 -74 35 -145 84 -76 52 -105 68
-133 74 -16 4 -40 18 -52 31 -13 14 -39 30 -58 36 -20 7 -56 25 -81 40 -25 16
-59 37 -75 47 -16 9 -40 26 -55 38 -14 11 -45 28 -67 37 -42 16 -97 49 -145
86 -15 12 -60 37 -100 58 -41 20 -85 45 -98 55 -13 10 -35 18 -48 18 -13 0
-35 11 -49 25 -14 14 -42 34 -62 45 -20 12 -62 36 -92 55 -30 19 -63 34 -72
35 -10 0 -32 13 -50 28 -18 16 -55 37 -83 47 -27 10 -66 31 -86 46 -20 16 -70
44 -110 64 -41 20 -90 48 -109 64 -19 15 -52 33 -72 40 -21 7 -40 17 -44 22
-3 5 -24 19 -47 31 -23 11 -75 43 -116 69 -41 27 -79 49 -86 49 -7 0 -23 8
-36 18 -13 10 -40 25 -58 32 -52 21 -130 66 -181 105 -42 32 -120 75 -136 75
-10 0 -107 62 -115 73 -9 12 -73 50 -129 77 -24 11 -51 27 -60 34 -8 8 -29 17
-46 20 -18 4 -40 16 -50 27 -10 11 -50 38 -90 59 -39 22 -77 47 -84 54 -6 8
-34 22 -61 31 -27 9 -52 22 -56 28 -5 7 -48 33 -98 58 -153 79 -277 147 -294
163 -9 8 -36 24 -61 35 -86 40 -166 86 -205 119 -22 17 -44 32 -50 32 -6 0
-34 15 -63 34 -29 19 -69 37 -88 40 -19 4 -60 28 -91 53 -31 25 -111 74 -178
107 -67 34 -134 72 -150 84 -15 12 -33 22 -41 22 -7 0 -25 11 -41 24 -15 13
-44 31 -63 40 -75 35 -206 109 -226 127 -11 10 -23 19 -27 19 -3 0 -25 13 -49
29 -24 15 -60 34 -80 40 -20 7 -42 18 -48 26 -6 8 -42 26 -80 41 -38 15 -85
42 -104 60 -20 19 -42 34 -50 34 -8 0 -27 11 -43 24 -16 14 -43 28 -59 32 -16
4 -42 16 -58 27 -16 11 -62 37 -104 58 -41 21 -82 45 -91 52 -25 21 -156 97
-167 97 -6 0 -26 11 -44 25 -19 14 -51 31 -71 37 -21 6 -60 28 -88 49 -27 21
-63 45 -79 53 -16 8 -34 21 -41 30 -7 8 -27 18 -44 21 -32 7 -93 43 -132 78
-10 9 -37 23 -60 29 -22 6 -68 33 -102 60 -35 26 -68 48 -74 48 -14 0 -116 57
-141 78 -20 17 -105 64 -168 94 -25 11 -55 29 -68 39 -13 10 -44 28 -70 40
-56 27 -174 103 -192 124 -7 8 -22 15 -34 15 -13 0 -59 24 -104 54 -46 30 -95
57 -110 61 -15 3 -44 20 -65 36 -42 34 -142 89 -161 89 -7 0 -35 16 -62 35
-27 19 -56 35 -65 35 -8 0 -37 15 -64 33 -26 17 -67 44 -89 59 -23 15 -70 42
-106 59 -36 18 -81 45 -100 60 -19 14 -51 32 -70 38 -19 6 -64 31 -100 55 -36
24 -81 52 -101 63 -81 41 -125 67 -182 109 -33 24 -77 49 -96 55 -20 6 -45 19
-56 29 -36 31 -104 70 -124 70 -10 0 -38 16 -61 35 -23 19 -46 35 -51 35 -4 0
-16 8 -26 19 -10 10 -31 21 -47 25 -16 4 -62 29 -101 55 -40 27 -82 52 -95 56
-25 8 -115 60 -140 81 -8 7 -77 45 -154 84 -139 72 -241 133 -248 147 -1 5
-41 26 -88 47 -47 22 -97 50 -112 62 -15 12 -41 25 -56 29 -16 3 -39 15 -51
26 -11 11 -41 28 -65 38 -24 11 -47 24 -50 30 -4 6 -26 19 -49 29 -23 11 -67
36 -97 56 -30 20 -72 41 -92 47 -20 5 -40 14 -43 20 -6 10 -44 36 -129 90 -22
15 -73 43 -113 64 -39 20 -83 50 -97 66 -15 16 -34 29 -45 29 -10 0 -35 11
-55 25 -20 14 -40 25 -45 25 -4 0 -16 9 -26 20 -10 11 -42 28 -72 37 -29 9
-61 24 -72 34 -10 9 -31 24 -47 33 -16 9 -58 34 -93 56 -34 22 -68 40 -75 40
-6 0 -27 11 -47 24 -19 13 -52 29 -72 34 -33 9 -74 37 -128 87 -8 8 -32 22
-53 30 -21 9 -68 35 -105 57 -36 22 -83 46 -103 54 -21 7 -62 31 -93 54 -52
39 -178 112 -295 172 -30 15 -86 50 -125 78 -38 27 -95 61 -125 76 -30 15 -69
38 -86 51 -17 13 -36 23 -42 23 -6 0 -16 9 -21 19 -6 10 -31 26 -56 34 -25 9
-71 34 -103 55 -31 22 -68 43 -82 47 -37 11 -125 62 -145 85 -10 11 -24 20
-30 20 -7 0 -25 10 -40 21 -15 12 -64 40 -108 61 -45 22 -113 61 -150 86 -88
60 -111 74 -235 139 -56 30 -130 72 -164 93 -34 22 -65 40 -71 40 -5 0 -22 11
-39 25 -16 14 -38 25 -48 25 -11 0 -34 13 -52 29 -18 15 -44 32 -58 36 -28 8
-132 65 -140 76 -9 12 -128 79 -141 79 -7 0 -28 12 -48 28 -77 59 -98 72 -146
96 -58 30 -77 41 -126 79 -20 15 -46 27 -58 27 -11 0 -38 16 -60 35 -21 19
-43 35 -48 35 -6 0 -16 7 -23 15 -7 8 -31 23 -54 33 -22 11 -47 26 -55 35 -7
10 -23 17 -35 17 -37 1 -236 127 -236 150 0 5 -10 12 -22 16 -13 3 -31 13 -41
22 -10 9 -37 23 -60 31 -60 23 -146 74 -190 114 -30 28 -37 42 -37 71 0 28 6
39 28 53 15 10 34 25 42 34 18 19 107 90 131 104 40 24 76 51 96 72 12 12 34
25 50 29 15 4 48 24 73 45 25 20 82 58 128 84 45 26 82 51 82 55 0 4 24 17 53
29 59 25 113 59 174 112 24 20 64 44 90 54 27 10 51 24 56 31 4 7 28 20 55 30
26 10 72 36 102 59 30 23 92 60 137 83 44 23 94 53 110 68 15 14 53 37 83 51
30 13 64 32 75 42 11 10 58 37 105 60 47 24 92 49 101 57 8 7 31 19 50 25 19
7 45 20 59 29 14 9 59 34 100 55 41 21 85 47 97 59 12 12 57 36 100 54 43 19
85 38 93 43 8 5 38 20 65 34 28 14 75 40 105 59 30 19 80 43 110 52 30 10 66
25 80 35 81 54 198 113 248 124 17 3 47 19 66 34 21 17 53 31 80 34 24 4 73
20 108 38 269 132 294 135 444 58 55 -27 108 -58 119 -68 11 -10 36 -21 56
-25 20 -3 44 -15 54 -26 10 -11 34 -24 54 -31 37 -12 131 -69 165 -101 11 -10
27 -18 35 -18 8 0 24 -8 35 -18 12 -10 40 -24 64 -31 23 -6 42 -16 42 -22 0
-5 20 -18 44 -29 25 -10 54 -28 65 -39 12 -12 30 -21 42 -21 12 0 34 -11 51
-25 16 -14 38 -25 49 -25 11 0 47 -13 82 -29 56 -26 79 -42 154 -109 12 -11
37 -25 56 -31 18 -6 43 -20 55 -31 12 -11 28 -20 37 -20 28 0 228 -109 287
-156 15 -12 42 -24 60 -28 18 -3 55 -25 82 -49 28 -25 68 -49 95 -57 25 -7 70
-32 100 -56 29 -24 60 -44 68 -44 7 0 25 -11 38 -24 13 -13 47 -32 74 -41 28
-9 54 -22 58 -28 5 -7 43 -30 86 -52 42 -22 80 -48 83 -57 3 -10 12 -18 21
-18 9 0 31 -11 49 -25 19 -14 52 -32 74 -40 23 -8 53 -24 67 -35 14 -11 31
-20 38 -20 7 0 18 -7 25 -14 6 -8 33 -22 59 -31 26 -8 54 -24 64 -35 9 -11 23
-20 30 -20 7 0 29 -13 47 -30 20 -18 45 -30 61 -30 18 0 40 -11 59 -30 17 -16
37 -30 45 -30 8 0 20 -9 28 -20 7 -10 34 -28 60 -39 26 -11 47 -24 47 -29 0
-5 21 -15 48 -22 26 -6 54 -18 62 -25 8 -7 40 -23 70 -35 30 -12 69 -34 85
-49 35 -33 156 -101 179 -101 8 0 31 -13 49 -30 19 -16 54 -39 78 -50 49 -23
69 -34 125 -71 69 -44 78 -49 130 -74 28 -13 54 -30 57 -38 3 -8 28 -22 55
-31 27 -9 69 -35 92 -56 24 -22 46 -40 50 -40 3 0 30 -16 59 -35 30 -18 66
-37 81 -40 16 -3 36 -15 46 -26 9 -10 22 -19 29 -19 7 0 24 -11 40 -24 15 -13
41 -27 56 -30 16 -3 38 -15 49 -26 11 -11 23 -20 26 -20 18 0 177 -85 181 -97
3 -7 25 -22 49 -32 24 -11 44 -25 44 -30 0 -6 6 -11 13 -11 8 0 33 -13 55 -30
23 -16 48 -30 56 -30 25 0 100 -37 120 -59 11 -11 37 -26 58 -32 27 -7 45 -20
56 -40 9 -16 23 -29 30 -29 7 0 39 -13 70 -29 31 -17 70 -33 85 -37 16 -3 31
-13 34 -21 3 -8 29 -25 57 -39 28 -13 69 -35 91 -48 22 -14 54 -32 70 -41 17
-10 41 -27 55 -40 14 -12 41 -28 61 -34 20 -7 44 -20 54 -31 10 -11 34 -25 54
-31 44 -15 99 -49 125 -78 11 -11 23 -21 28 -21 4 0 27 -13 50 -30 22 -16 48
-30 58 -30 19 0 140 -77 140 -89 0 -5 20 -14 45 -20 25 -6 53 -20 63 -31 9
-11 21 -20 27 -20 7 0 22 -11 35 -25 13 -14 42 -30 64 -36 23 -6 50 -19 61
-29 11 -10 32 -22 48 -25 15 -4 33 -15 40 -24 14 -20 124 -81 145 -81 8 0 33
-14 56 -30 70 -52 116 -80 132 -80 9 0 28 -13 43 -29 17 -18 42 -31 68 -36 40
-6 133 -59 133 -74 0 -4 17 -16 38 -27 20 -10 44 -24 52 -30 8 -6 36 -18 62
-28 27 -10 51 -23 55 -30 13 -20 198 -125 255 -145 65 -22 115 -52 134 -80 8
-11 21 -21 29 -21 8 0 29 -13 47 -29 18 -16 51 -34 73 -40 22 -6 58 -23 80
-36 22 -13 67 -38 100 -55 65 -33 118 -67 152 -98 12 -11 37 -25 56 -31 19 -7
42 -20 52 -30 9 -11 28 -22 42 -26 14 -3 38 -15 53 -27 39 -29 125 -29 166 0
16 11 52 25 80 32 31 7 61 22 75 36 17 18 33 24 68 24 34 0 51 6 71 25 19 18
41 26 85 31 33 4 67 13 75 20 9 7 45 21 80 30 35 9 73 22 85 29 11 7 40 19 65
26 25 6 67 22 94 35 28 13 58 24 67 24 9 0 41 11 71 25 29 14 69 28 88 31 19
4 46 15 59 25 13 11 36 19 51 19 33 0 90 18 110 36 8 7 46 18 84 25 39 6 78
20 89 29 10 10 49 24 85 31 37 7 72 18 77 24 13 16 70 35 102 35 14 0 36 9 49
19 14 11 55 30 92 42 37 12 92 33 122 47 30 13 79 31 109 38 30 8 69 23 85 33
17 10 62 23 100 30 38 7 81 20 95 30 30 21 86 41 112 41 10 0 35 11 55 25 23
16 51 25 75 25 26 0 47 8 68 26 20 16 50 28 83 33 35 5 71 20 108 44 30 21 66
37 81 37 14 0 48 11 75 25 27 14 67 27 89 30 54 7 113 24 161 45 22 10 62 24
90 31 27 7 55 18 62 25 13 14 75 34 103 34 8 0 33 13 55 29 27 19 55 30 90 33
33 3 59 12 73 25 22 20 62 33 105 33 11 0 43 11 70 25 27 14 60 25 73 25 13 0
47 13 76 30 30 17 61 30 70 30 9 0 37 11 63 25 26 14 53 25 61 25 7 0 36 11
63 25 27 14 55 25 62 25 7 0 30 9 50 20 20 11 58 25 85 31 26 7 66 22 88 34
22 13 59 26 83 29 24 4 55 15 70 26 15 11 47 24 72 29 25 6 67 22 94 36 27 14
61 25 76 25 15 0 35 9 45 20 10 11 44 28 74 37 31 8 72 24 91 34 42 23 188 82
282 115 37 12 78 29 90 36 30 16 89 38 106 38 8 0 21 9 30 20 10 11 38 24 65
29 29 5 57 18 73 35 19 19 37 26 64 26 27 0 47 8 75 33 35 30 105 60 216 92
26 7 55 18 65 24 53 29 151 71 166 71 10 0 18 4 18 10 0 12 46 36 90 45 19 4
42 18 52 30 10 13 34 26 54 30 20 3 48 15 63 25 14 10 47 21 73 25 29 4 53 13
60 24 18 24 51 41 83 41 15 0 39 8 53 19 15 10 41 21 57 25 17 4 37 13 45 20
8 7 34 20 56 29 23 9 58 27 79 41 21 14 46 26 56 26 10 0 20 4 24 9 3 5 27 17
53 27 26 9 56 25 67 35 11 9 39 23 63 30 23 7 42 16 42 20 0 9 57 39 74 39 6
0 31 14 55 30 24 17 52 30 61 30 9 0 25 9 35 20 9 10 34 24 54 31 20 6 45 20
57 31 23 20 63 43 169 94 39 19 81 41 95 49 14 8 45 24 70 36 25 12 48 28 53
35 4 7 28 20 55 30 26 10 56 27 67 37 11 10 31 21 45 24 14 3 39 21 57 39 18
18 48 37 68 44 19 6 35 15 35 19 0 4 19 16 43 26 77 32 111 50 131 68 11 9 25
17 32 17 6 0 28 14 49 30 21 17 44 30 51 30 7 0 20 7 28 15 9 9 36 25 61 36
25 11 45 24 45 29 0 13 100 77 134 86 28 7 101 48 172 97 18 12 47 31 65 42
37 22 36 22 135 86 39 26 81 50 93 54 11 3 21 11 21 16 0 5 21 19 47 32 25 12
58 32 71 43 53 47 63 55 94 72 18 10 44 28 58 40 70 60 114 92 157 112 26 12
55 26 63 31 8 5 28 17 44 27 16 9 44 29 61 45 18 15 36 27 40 27 4 0 23 12 41
28 19 15 49 39 67 53 17 15 42 29 55 33 12 4 22 11 22 17 0 5 21 20 48 33 26
13 56 33 66 45 11 12 25 21 32 21 7 0 18 9 24 19 5 11 20 23 32 27 13 4 28 13
33 21 6 8 27 24 46 36 85 52 109 70 109 78 0 5 16 17 35 26 19 9 38 25 41 36
3 10 22 25 41 34 20 8 42 20 49 26 7 7 28 24 46 39 18 15 65 54 103 85 102 85
152 123 161 123 4 0 14 7 23 15 9 8 39 33 66 55 28 23 64 53 81 68 46 41 74
63 129 104 28 20 57 43 65 50 8 7 39 31 70 54 30 23 66 53 79 68 14 14 30 26
36 26 6 0 21 14 33 30 13 17 28 30 34 30 6 0 21 10 34 23 30 29 46 42 121 101
34 26 69 59 78 72 8 13 22 24 29 24 8 0 21 11 30 25 9 14 22 25 28 25 12 0 23
9 88 73 15 15 31 27 34 27 6 0 191 157 247 210 15 14 40 36 58 50 17 14 53 45
81 70 28 25 73 63 101 85 28 22 64 55 82 73 17 17 37 32 44 32 7 0 13 6 13 13
1 6 33 41 72 77 39 36 96 91 127 123 32 31 62 57 68 57 7 0 14 9 18 19 3 11
15 23 26 26 10 4 24 16 31 28 24 45 65 89 113 121 55 37 225 200 225 215 0 5
30 36 66 68 117 103 434 425 434 441 0 5 11 15 25 22 14 7 25 19 25 25 0 12
37 52 143 154 37 34 67 65 67 67 0 2 33 39 74 82 41 42 119 124 174 182 55 58
127 134 159 170 32 35 92 99 133 141 41 42 111 116 155 164 103 114 170 186
275 295 47 49 105 110 130 137 89 96 356 377 408 430 28 29 52 55 52 59 0 3
37 43 83 89 100 102 147 155 147 167 0 4 7 8 15 8 8 0 15 5 15 10 0 6 46 58
103 117 258 268 357 372 408 428 30 33 69 74 87 92 17 17 32 35 32 40 0 4 23
26 50 48 27 22 52 48 55 58 4 10 18 23 31 29 13 6 24 17 24 24 0 7 11 21 25
32 14 11 25 23 25 27 0 4 27 34 60 68 33 34 93 97 133 140 65 70 230 244 377
397 334 348 380 398 380 410 0 5 4 10 10 10 14 0 167 161 214 225 16 22 86 96
155 165 69 69 170 171 223 225 107 111 227 225 235 225 3 0 20 15 38 33 18 17
46 43 63 57 41 33 73 59 113 93 109 89 96 84 144 62z m-17251 -3097 c14 -20
16 -86 16 -528 0 -520 -11 -725 -44 -830 -8 -25 -19 -83 -25 -129 -6 -47 -18
-94 -25 -107 -8 -12 -22 -49 -31 -83 -8 -33 -26 -87 -39 -118 -13 -32 -34 -83
-46 -113 -12 -30 -47 -105 -76 -167 -30 -62 -54 -118 -54 -124 0 -7 -9 -26
-20 -44 -11 -18 -29 -57 -39 -86 -10 -30 -28 -72 -38 -94 -41 -83 -71 -151
-83 -187 -6 -21 -15 -40 -20 -43 -5 -3 -14 -22 -20 -43 -7 -20 -30 -74 -51
-119 -21 -45 -51 -115 -65 -155 -14 -40 -41 -102 -59 -138 -17 -36 -38 -83
-45 -105 -7 -22 -20 -49 -30 -60 -10 -11 -20 -36 -24 -56 -4 -21 -15 -48 -26
-62 -11 -14 -20 -28 -20 -31 0 -4 -9 -26 -21 -51 -33 -70 -73 -62 -165 29 -28
28 -71 70 -95 92 -24 23 -50 48 -57 55 -7 8 -18 20 -25 27 -22 22 -122 130
-133 144 -6 7 -20 20 -30 29 -29 24 -97 101 -118 134 -11 17 -25 34 -33 38 -7
4 -22 26 -33 48 -11 21 -24 39 -29 39 -5 0 -14 15 -21 34 -6 18 -21 38 -35 44
-14 6 -28 24 -31 39 -4 15 -18 48 -31 72 -12 24 -23 59 -23 77 0 23 -10 44
-30 68 -40 45 -55 88 -41 115 16 29 14 60 -10 126 -19 53 -22 82 -22 240 0
159 2 186 20 232 16 38 19 61 13 86 -4 19 -6 48 -5 66 3 31 48 111 63 111 5 0
7 13 4 29 -2 16 5 45 17 69 12 23 21 49 21 58 0 9 17 33 38 53 20 20 44 49 52
65 8 17 24 40 35 52 11 12 31 36 45 54 61 77 79 98 145 162 39 37 75 68 81 68
7 0 19 11 28 24 8 14 25 27 36 31 11 3 20 12 20 18 1 13 73 71 120 97 31 17
86 55 145 100 22 16 53 38 69 48 16 9 40 29 54 45 14 15 29 27 34 27 9 0 29
16 89 73 22 20 48 37 58 37 10 0 26 9 36 20 10 11 22 20 28 20 9 0 60 41 124
100 18 17 39 30 47 30 8 0 19 6 23 14 4 7 19 19 32 26 33 17 132 94 156 120
11 13 40 31 64 41 24 11 57 31 73 44 37 31 62 32 82 3z m39109 -4919 c27 -6
51 -18 54 -25 3 -8 23 -19 45 -24 21 -6 47 -19 57 -29 11 -11 43 -24 72 -30
49 -11 141 -59 164 -86 5 -6 31 -20 58 -29 26 -10 47 -22 47 -27 0 -8 26 -23
132 -80 17 -8 34 -23 39 -31 5 -9 24 -19 42 -22 19 -4 42 -15 52 -26 9 -10 39
-26 65 -35 27 -9 51 -23 54 -31 3 -7 15 -14 26 -14 12 0 33 -12 48 -28 15 -15
44 -36 65 -46 20 -11 37 -23 37 -28 0 -4 13 -8 28 -8 36 0 120 -53 131 -82 6
-16 29 -30 76 -48 37 -14 75 -35 85 -48 10 -12 39 -30 65 -39 30 -10 50 -24
57 -39 6 -13 19 -24 29 -24 10 0 23 -9 29 -20 6 -11 30 -30 53 -41 23 -12 46
-28 50 -35 4 -8 16 -14 27 -14 10 0 31 -10 47 -23 15 -12 44 -30 64 -39 20 -9
61 -37 92 -61 30 -25 74 -55 96 -67 23 -11 59 -36 80 -55 21 -19 45 -35 52
-35 22 0 68 -32 139 -94 36 -31 79 -63 96 -71 17 -7 38 -21 45 -32 8 -10 28
-25 44 -31 26 -11 85 -59 165 -136 14 -13 34 -27 46 -30 11 -3 44 -29 73 -56
29 -28 57 -50 63 -50 6 0 35 -25 64 -55 30 -30 58 -55 62 -55 17 0 84 -93 89
-124 5 -29 0 -39 -40 -80 -41 -43 -65 -60 -152 -105 -17 -9 -42 -24 -55 -34
-54 -39 -116 -77 -126 -77 -6 0 -19 -9 -29 -20 -10 -12 -37 -29 -59 -39 -23
-10 -47 -25 -55 -34 -7 -10 -18 -17 -23 -17 -6 0 -25 -12 -43 -27 -56 -47 -87
-66 -170 -109 -79 -40 -152 -85 -230 -143 -22 -17 -55 -37 -73 -45 -19 -9 -67
-38 -109 -66 -41 -27 -80 -50 -87 -50 -7 0 -40 -21 -75 -46 -35 -25 -78 -53
-95 -60 -37 -17 -118 -69 -166 -105 -19 -15 -60 -39 -90 -54 -30 -15 -59 -34
-65 -41 -5 -7 -41 -29 -80 -50 -38 -21 -88 -51 -109 -66 -21 -15 -44 -28 -50
-28 -11 0 -66 -34 -136 -84 -19 -14 -61 -39 -93 -55 -32 -17 -71 -40 -85 -51
-40 -31 -116 -80 -125 -80 -4 0 -30 -16 -58 -35 -28 -19 -55 -35 -60 -35 -5 0
-34 -17 -65 -37 -31 -21 -70 -47 -88 -57 -17 -11 -34 -25 -39 -32 -4 -7 -24
-18 -45 -24 -20 -7 -69 -34 -108 -60 -39 -27 -83 -52 -97 -55 -15 -4 -31 -13
-35 -20 -4 -7 -25 -22 -48 -33 -22 -11 -46 -28 -53 -36 -8 -9 -19 -16 -25 -16
-12 0 -104 -55 -146 -88 -14 -11 -57 -37 -95 -58 -39 -21 -83 -48 -100 -60
-16 -12 -52 -34 -80 -49 -59 -31 -155 -90 -173 -105 -7 -6 -29 -19 -50 -28
-20 -9 -53 -29 -73 -44 -20 -16 -41 -28 -48 -28 -15 0 -95 -45 -132 -74 -15
-12 -42 -30 -60 -41 -18 -11 -45 -28 -59 -37 -14 -9 -31 -17 -39 -17 -8 -1
-24 -9 -35 -20 -12 -10 -50 -34 -86 -53 -36 -19 -94 -55 -129 -81 -36 -26 -81
-52 -100 -58 -20 -6 -45 -19 -56 -28 -32 -27 -100 -71 -111 -71 -5 0 -27 -14
-48 -30 -22 -17 -45 -30 -51 -30 -6 0 -22 -11 -35 -25 -13 -14 -28 -25 -33
-25 -19 0 -113 -53 -142 -80 -39 -37 -125 -90 -144 -90 -9 0 -39 -16 -66 -36
-28 -20 -76 -49 -109 -66 -32 -16 -67 -38 -78 -48 -11 -10 -61 -39 -111 -65
-51 -26 -99 -53 -107 -60 -8 -7 -44 -27 -80 -45 -36 -18 -76 -41 -90 -52 -47
-36 -105 -71 -180 -110 -41 -22 -84 -47 -95 -57 -11 -10 -33 -26 -50 -35 -16
-9 -48 -28 -70 -41 -22 -13 -66 -37 -98 -54 -32 -16 -80 -46 -108 -66 -28 -20
-63 -41 -77 -46 -15 -6 -51 -27 -81 -47 -93 -64 -106 -72 -121 -72 -9 0 -44
-20 -78 -45 -34 -25 -86 -56 -115 -70 -28 -14 -70 -39 -92 -55 -22 -17 -56
-39 -75 -50 -38 -21 -90 -54 -136 -84 -80 -53 -118 -76 -128 -76 -6 0 -51 -25
-101 -55 -49 -30 -97 -55 -106 -55 -9 0 -24 -9 -35 -21 -10 -12 -32 -28 -49
-36 -16 -9 -44 -28 -62 -43 -17 -15 -49 -34 -70 -40 -21 -7 -56 -25 -78 -40
-22 -15 -60 -37 -85 -50 -25 -12 -71 -40 -102 -61 -31 -21 -72 -45 -91 -53
-20 -8 -62 -32 -95 -54 -33 -22 -76 -45 -95 -51 -19 -7 -43 -21 -52 -31 -10
-11 -24 -20 -30 -20 -7 0 -19 -7 -26 -17 -8 -9 -36 -27 -64 -40 -61 -29 -117
-63 -143 -86 -11 -10 -36 -22 -56 -28 -19 -5 -48 -20 -63 -33 -15 -12 -57 -40
-93 -60 -36 -21 -67 -41 -70 -45 -7 -9 -92 -59 -232 -135 -29 -16 -75 -43
-103 -61 -27 -17 -86 -53 -130 -78 -44 -25 -89 -55 -100 -66 -11 -11 -41 -29
-66 -40 -26 -10 -50 -24 -54 -31 -4 -6 -48 -31 -99 -55 -51 -24 -112 -60 -136
-80 -23 -19 -49 -35 -58 -35 -17 0 -81 -39 -134 -80 -15 -11 -44 -27 -65 -34
-21 -8 -69 -35 -108 -60 -38 -25 -74 -46 -80 -46 -6 0 -45 -23 -86 -51 -41
-28 -92 -58 -114 -66 -21 -7 -46 -20 -55 -27 -30 -27 -180 -126 -190 -126 -11
0 -93 -52 -142 -90 -15 -11 -42 -26 -60 -32 -18 -6 -60 -30 -93 -53 -33 -23
-70 -45 -82 -49 -30 -9 -131 -71 -157 -95 -12 -11 -55 -35 -96 -55 -41 -20
-77 -40 -80 -45 -3 -5 -36 -23 -73 -39 -38 -17 -85 -44 -105 -60 -20 -16 -73
-49 -117 -72 -44 -24 -87 -49 -96 -57 -17 -15 -76 -48 -145 -82 -23 -12 -47
-28 -55 -37 -7 -9 -47 -33 -88 -55 -42 -21 -83 -44 -91 -49 -8 -6 -35 -19 -60
-30 -25 -11 -65 -34 -90 -50 -25 -17 -58 -38 -73 -48 -16 -9 -38 -25 -49 -34
-11 -9 -36 -22 -57 -29 -20 -6 -43 -17 -51 -24 -8 -7 -33 -21 -55 -31 -22 -10
-58 -31 -80 -47 -88 -62 -147 -99 -189 -117 -24 -10 -70 -39 -103 -64 -33 -25
-92 -62 -131 -81 -39 -20 -76 -42 -82 -50 -6 -8 -34 -21 -61 -30 -27 -9 -51
-21 -54 -26 -5 -8 -24 -20 -159 -107 -27 -18 -55 -32 -61 -32 -7 0 -24 -9 -38
-20 -14 -11 -54 -34 -89 -51 -35 -18 -76 -41 -93 -53 -45 -32 -181 -110 -360
-205 -44 -24 -119 -77 -134 -95 -7 -8 -27 -18 -44 -21 -18 -4 -52 -19 -77 -34
-25 -14 -62 -35 -83 -46 -21 -11 -52 -32 -69 -47 -17 -15 -41 -31 -52 -34 -12
-3 -30 -15 -41 -25 -11 -10 -40 -25 -63 -33 -42 -15 -116 -61 -146 -91 -8 -9
-48 -33 -89 -53 -41 -21 -87 -48 -102 -60 -15 -12 -33 -22 -39 -22 -7 0 -57
-30 -112 -66 -54 -37 -124 -78 -154 -92 -30 -14 -68 -35 -85 -48 -16 -12 -55
-34 -85 -49 -30 -15 -71 -39 -90 -54 -35 -26 -134 -81 -270 -147 -73 -36 -147
-81 -202 -124 -15 -11 -42 -26 -60 -32 -18 -6 -46 -21 -63 -34 -16 -12 -41
-25 -55 -29 -26 -8 -94 -50 -123 -76 -10 -9 -55 -35 -100 -58 -112 -57 -146
-76 -171 -99 -26 -24 -152 -92 -171 -92 -8 0 -19 -9 -25 -19 -5 -11 -27 -25
-47 -32 -36 -11 -88 -43 -183 -110 -25 -18 -69 -43 -98 -56 -29 -13 -63 -33
-75 -44 -12 -12 -51 -34 -85 -50 -35 -16 -71 -38 -80 -48 -10 -11 -51 -37 -92
-57 -41 -20 -88 -47 -105 -59 -16 -12 -64 -38 -105 -59 -41 -20 -102 -57 -135
-82 -33 -25 -80 -54 -105 -65 -25 -11 -64 -29 -87 -40 -23 -10 -44 -23 -47
-28 -4 -5 -23 -15 -44 -21 -20 -7 -48 -22 -62 -34 -34 -30 -70 -52 -170 -104
-47 -24 -89 -49 -95 -55 -15 -18 -106 -74 -135 -82 -14 -4 -34 -15 -45 -25
-11 -10 -41 -28 -66 -38 -26 -11 -48 -24 -50 -29 -2 -4 -33 -26 -69 -47 -36
-21 -74 -47 -85 -56 -11 -10 -31 -21 -45 -25 -14 -4 -62 -29 -106 -56 -45 -27
-87 -49 -93 -49 -5 0 -25 -13 -43 -29 -31 -26 -59 -43 -239 -140 -171 -93
-246 -135 -264 -151 -22 -19 -122 -74 -218 -122 -34 -17 -89 -49 -122 -71 -33
-22 -82 -49 -110 -62 -27 -12 -70 -38 -95 -56 -25 -19 -66 -41 -92 -48 -26 -7
-57 -24 -69 -37 -12 -13 -28 -24 -34 -24 -7 0 -20 -9 -30 -20 -10 -11 -35 -25
-56 -32 -21 -6 -46 -19 -55 -30 -10 -10 -22 -18 -27 -18 -6 0 -20 -8 -31 -18
-30 -26 -137 -88 -166 -97 -14 -4 -34 -15 -45 -25 -11 -9 -51 -34 -90 -55 -38
-21 -102 -60 -140 -87 -39 -26 -86 -53 -105 -59 -19 -7 -60 -29 -90 -50 -30
-21 -74 -45 -97 -53 -23 -8 -68 -34 -100 -58 -57 -41 -177 -109 -298 -167 -33
-16 -82 -45 -110 -65 -27 -19 -69 -44 -91 -55 -23 -10 -71 -37 -107 -59 -37
-22 -77 -44 -89 -47 -20 -6 -44 -20 -109 -60 -8 -5 -41 -27 -73 -48 -31 -21
-75 -44 -96 -52 -37 -13 -80 -39 -125 -76 -11 -9 -38 -22 -60 -29 -22 -7 -64
-31 -94 -53 -30 -22 -77 -49 -104 -59 -28 -11 -63 -29 -79 -41 -15 -12 -41
-32 -57 -45 -16 -12 -46 -29 -68 -38 -21 -9 -63 -34 -93 -55 -30 -21 -71 -44
-90 -50 -19 -7 -69 -35 -110 -62 -41 -28 -134 -81 -205 -118 -72 -37 -164 -89
-205 -116 -41 -27 -102 -60 -135 -73 -33 -13 -74 -37 -90 -52 -17 -15 -41 -28
-52 -28 -12 0 -34 -11 -50 -24 -15 -13 -44 -31 -63 -40 -19 -9 -53 -28 -75
-41 -22 -13 -56 -33 -75 -44 -19 -10 -60 -35 -90 -55 -30 -20 -84 -51 -120
-67 -36 -17 -87 -46 -115 -64 -27 -18 -88 -52 -135 -76 -46 -24 -91 -52 -98
-61 -7 -10 -19 -18 -25 -18 -21 0 -151 -66 -166 -83 -7 -9 -30 -21 -50 -27
-20 -5 -84 -40 -141 -78 -58 -38 -148 -90 -200 -116 -52 -26 -109 -57 -127
-69 -58 -40 -117 -75 -183 -109 -36 -18 -79 -42 -95 -54 -17 -12 -84 -50 -150
-84 -66 -35 -133 -74 -150 -86 -16 -12 -43 -26 -59 -30 -17 -4 -41 -20 -54
-36 -27 -32 -80 -62 -129 -73 -18 -3 -36 -12 -40 -19 -11 -17 -47 -36 -71 -36
-10 0 -29 -12 -41 -26 -12 -14 -43 -35 -69 -46 -41 -17 -178 -82 -325 -154
-60 -30 -137 -33 -158 -6 -36 42 -61 116 -74 219 -8 59 -19 129 -24 155 -6 25
-15 144 -22 265 -11 199 -9 589 6 1673 2 135 16 517 20 555 11 90 15 210 20
576 4 240 10 453 15 473 10 45 36 86 54 86 7 0 25 11 40 25 15 14 50 37 77 50
27 14 49 29 49 34 0 5 21 18 48 30 26 12 67 32 92 46 25 14 54 25 66 25 11 0
29 9 39 20 10 11 27 22 39 26 11 4 33 20 47 35 16 17 37 29 52 29 14 0 62 24
108 55 45 30 90 55 101 55 10 0 18 4 18 9 0 5 20 19 44 30 24 12 51 30 61 41
10 11 36 23 57 26 23 4 43 14 48 25 6 10 29 27 53 38 23 12 63 36 88 55 26 19
63 39 84 45 20 5 47 21 60 35 13 14 33 26 43 26 11 0 25 7 33 16 30 36 236
154 270 154 10 0 21 5 24 10 4 6 23 21 43 35 21 13 55 39 77 59 22 20 56 40
76 46 20 6 47 18 60 28 28 22 83 42 113 42 14 0 28 13 41 38 11 20 26 38 33
38 6 1 18 2 26 3 7 0 25 12 39 25 15 14 37 27 49 31 87 23 106 31 128 57 23
26 153 88 186 88 7 0 18 9 24 20 6 10 28 25 50 31 22 7 47 20 56 31 10 10 22
18 28 18 6 0 31 14 55 30 24 17 53 30 64 30 11 0 35 14 54 30 18 17 41 30 49
30 9 0 25 11 36 25 11 14 25 25 32 25 7 0 20 8 30 18 9 11 35 25 58 32 24 7
48 20 55 30 7 10 30 24 51 31 44 15 100 49 126 77 10 12 31 24 46 27 15 3 38
17 51 31 13 13 39 27 60 30 21 4 40 13 43 21 3 8 25 23 48 33 24 10 64 39 90
64 28 27 61 48 80 51 41 8 125 55 210 117 36 26 76 50 90 53 14 4 47 18 74 31
26 13 52 24 58 24 6 1 20 15 31 33 17 27 26 31 52 29 24 -3 40 3 60 23 15 14
39 28 53 32 14 3 31 15 38 25 7 10 19 18 27 18 8 0 29 14 47 30 18 17 44 30
58 30 14 0 30 8 37 20 7 10 32 24 55 30 24 7 52 20 63 29 11 9 32 22 48 29 15
6 27 16 27 21 0 16 31 41 51 41 10 0 28 9 38 19 11 11 36 23 56 27 20 3 49 19
65 35 16 17 39 29 54 29 14 0 33 10 44 25 11 14 23 25 27 25 3 0 21 11 38 24
18 13 43 27 57 31 14 4 34 18 46 30 11 12 37 25 58 29 20 4 45 14 54 22 59 52
159 124 172 124 17 0 75 29 135 65 22 14 59 35 83 47 23 12 42 25 42 29 0 11
65 49 83 49 9 0 33 11 53 25 20 14 47 25 60 25 16 0 28 9 38 28 10 18 35 37
78 57 34 15 78 41 96 57 18 15 41 28 52 28 10 0 31 10 47 23 35 29 102 63 161
84 25 8 52 23 61 34 9 10 47 35 85 54 37 19 76 45 85 56 11 14 33 23 63 26 33
4 48 10 51 23 3 11 22 24 47 31 24 7 54 23 66 36 13 13 30 23 39 23 8 0 15 5
15 11 0 5 21 19 46 30 25 11 48 27 51 35 3 7 24 19 47 26 22 6 51 22 64 35 13
12 27 23 33 23 5 0 38 22 72 48 34 27 99 65 144 86 79 35 166 88 208 125 21
19 112 63 155 76 14 4 41 22 60 40 19 19 58 45 87 60 29 14 55 30 58 35 3 5
31 17 60 26 32 9 67 28 84 45 16 16 37 29 45 29 9 0 33 15 53 34 22 19 64 41
97 52 33 10 67 24 75 31 49 42 119 87 148 95 19 5 42 17 51 26 32 32 99 70
140 81 22 7 43 19 47 29 8 22 63 57 123 77 26 9 56 24 67 34 45 39 104 72 139
78 20 3 41 14 46 23 12 22 127 97 206 134 17 8 37 22 44 31 18 22 117 85 132
85 7 0 42 20 80 45 37 25 87 55 110 66 24 11 68 36 98 54 30 19 81 48 113 65
32 17 60 37 63 45 7 18 105 65 134 65 12 0 39 14 60 30 21 17 42 30 47 30 5 0
19 13 31 29 22 30 211 131 244 131 10 0 25 11 34 25 16 25 122 85 150 85 7 0
29 14 47 30 19 17 42 30 50 30 9 0 18 4 22 9 3 6 49 33 103 62 53 29 110 63
125 76 16 13 35 23 44 23 8 0 28 11 45 25 16 14 36 25 43 25 7 0 24 9 37 20
36 31 112 80 124 80 6 0 29 12 50 26 21 15 73 45 114 67 41 22 82 46 91 53 8
8 51 33 95 56 43 22 96 52 117 65 21 13 71 40 110 58 40 19 92 50 117 70 25
19 61 43 80 52 19 9 63 30 98 46 34 17 65 34 68 39 4 5 25 19 48 29 62 30 105
55 125 73 9 8 35 22 57 30 42 14 148 79 159 96 3 5 24 14 46 20 22 6 48 18 57
26 56 48 92 74 127 91 65 32 110 59 161 98 26 20 68 46 93 57 25 12 53 27 62
35 23 19 130 83 139 83 5 0 16 7 25 16 17 17 68 47 159 94 33 16 66 36 75 44
9 8 48 31 86 51 122 64 163 90 184 117 12 14 51 38 88 53 38 15 77 35 88 45
11 10 36 25 56 33 20 8 45 26 56 40 22 28 81 67 102 67 15 0 82 40 138 83 20
15 44 27 55 27 24 0 53 15 79 41 10 10 25 19 32 19 8 0 24 11 36 24 12 13 52
39 89 57 37 18 78 41 92 51 14 10 46 24 71 31 44 13 55 20 124 80 18 15 37 27
42 27 6 0 22 9 36 20 14 12 41 26 59 32 18 6 46 22 61 35 16 12 35 23 43 23 7
0 21 11 30 25 10 15 33 29 57 36 23 6 46 18 53 26 11 16 33 29 110 67 51 26
174 108 174 116 0 4 35 24 78 44 42 21 92 49 111 62 19 13 43 24 53 24 11 0
40 18 65 40 25 22 51 40 58 40 7 0 18 7 25 15 7 8 20 15 30 15 10 0 23 7 30
15 7 8 30 20 52 27 26 8 44 21 54 40 11 21 43 42 129 83 63 30 118 55 121 55
4 0 21 16 39 35 29 32 120 75 159 75 7 0 20 7 27 16 17 21 130 94 145 94 6 0
23 11 37 24 14 13 42 27 63 31 21 4 44 15 52 26 7 10 19 19 26 19 7 0 21 10
32 21 10 12 38 30 62 41 23 10 42 22 42 27 0 4 25 18 55 30 30 13 55 27 55 32
0 4 19 14 43 20 23 7 52 23 65 36 13 12 29 23 36 23 7 0 24 12 39 28 42 43 80
69 115 76 18 4 37 16 43 27 5 11 30 25 56 32 31 8 65 28 99 60 49 44 165 107
198 107 8 0 34 19 58 43 24 23 62 48 83 56 22 7 61 26 86 42 25 16 52 29 60
29 8 0 30 11 49 24 19 13 45 26 57 30 13 4 36 20 52 37 16 16 40 29 53 29 21
0 46 13 163 85 18 11 41 31 51 43 12 13 35 25 59 29 23 3 54 18 73 35 18 15
41 28 51 28 10 0 21 9 24 19 3 12 17 22 38 26 19 4 45 17 59 29 45 40 105 75
137 82 19 4 54 28 89 61 47 45 142 103 169 103 4 0 20 11 37 25 16 14 42 28
56 31 15 4 62 33 105 65 43 33 86 59 96 59 10 0 24 7 31 15 7 8 31 20 53 27
23 7 54 27 70 45 16 18 52 43 81 57 29 14 59 32 66 40 7 9 31 21 54 27 22 6
59 24 81 40 60 45 185 117 225 130 19 7 46 20 59 30 13 11 30 19 37 19 7 0 21
11 30 25 19 29 133 95 164 95 12 0 31 11 42 25 11 14 28 25 37 25 10 0 35 14
56 30 21 17 43 30 50 30 7 0 18 7 25 14 6 8 35 23 63 32 28 9 58 23 65 31 8 7
26 20 40 27 15 8 36 23 46 35 11 12 24 21 31 21 6 0 26 11 45 25 18 14 49 28
67 31 18 3 33 12 33 19 0 13 57 45 80 45 7 0 21 11 32 25 11 14 47 39 81 56
34 17 71 38 82 48 11 10 36 24 55 31 19 8 46 26 60 41 15 15 61 43 103 64 43
20 93 50 111 66 34 29 103 59 137 59 10 0 24 10 30 22 7 13 17 27 23 33 19 19
83 45 109 45 13 0 38 13 55 30 18 17 40 30 51 30 10 0 26 11 35 25 18 28 64
53 150 81 33 10 70 29 82 42 13 12 31 22 41 22 11 0 36 16 57 36 40 38 113 74
149 74 12 0 28 9 34 19 7 11 29 25 50 31 21 7 43 18 48 25 6 7 28 21 50 32 22
10 49 24 60 30 11 6 34 17 50 24 17 8 32 16 35 20 15 16 57 39 73 39 10 0 30
11 45 25 15 14 34 25 43 25 9 0 28 11 43 25 15 14 38 28 51 31 14 3 25 10 25
15 0 12 48 35 88 42 18 4 56 24 85 45 28 21 75 47 102 57 28 10 66 29 85 42
19 13 41 23 48 23 8 0 26 8 40 18 74 51 149 59 275 31z"/>
<path d="M40463 77446 c-33 -15 -48 -42 -37 -70 10 -25 51 -24 102 2 36 19 38
24 17 45 -11 12 -12 17 -2 20 7 3 6 6 -5 6 -9 1 -22 3 -30 6 -7 2 -27 -2 -45
-9z"/>
</g>
</svg>
